<svg xmlns="http://www.w3.org/2000/svg" xmlns:xlink="http://www.w3.org/1999/xlink" width="40" zoomAndPan="magnify" viewBox="0 0 30 30.000001" height="40" preserveAspectRatio="xMidYMid meet" version="1.0"><defs><clipPath id="1a2a20a333"><path d="M 1.132812 0 L 28.710938 0 L 28.710938 28.945312 L 1.132812 28.945312 Z M 1.132812 0 " clip-rule="nonzero"/></clipPath></defs><g clip-path="url(#1a2a20a333)"><path fill="#5e17eb" d="M 25.023438 0.320312 L 25.023438 1.242188 L 25.949219 1.242188 C 26.175781 1.242188 26.355469 1.425781 26.355469 1.648438 C 26.355469 1.875 26.175781 2.054688 25.949219 2.054688 L 25.023438 2.054688 L 25.023438 2.980469 C 25.023438 3.207031 24.839844 3.386719 24.617188 3.386719 C 24.390625 3.386719 24.210938 3.207031 24.210938 2.980469 L 24.210938 2.054688 L 23.289062 2.054688 C 23.066406 2.054688 22.882812 1.875 22.882812 1.648438 C 22.882812 1.425781 23.066406 1.242188 23.289062 1.242188 L 24.210938 1.242188 L 24.210938 0.320312 C 24.210938 0.0976562 24.390625 -0.0859375 24.617188 -0.0859375 C 24.839844 -0.0859375 25.023438 0.0976562 25.023438 0.320312 Z M 5.617188 24.601562 C 5.394531 24.601562 5.210938 24.785156 5.210938 25.007812 L 5.210938 26.035156 C 5.210938 26.261719 5.394531 26.441406 5.617188 26.441406 C 5.84375 26.441406 6.023438 26.261719 6.023438 26.035156 L 6.023438 25.007812 C 6.023438 24.785156 5.84375 24.601562 5.617188 24.601562 Z M 6.023438 28.621094 L 6.023438 27.601562 C 6.023438 27.375 5.84375 27.195312 5.617188 27.195312 C 5.394531 27.195312 5.210938 27.375 5.210938 27.601562 L 5.210938 28.621094 C 5.210938 28.84375 5.394531 29.027344 5.617188 29.027344 C 5.84375 29.027344 6.023438 28.84375 6.023438 28.621094 Z M 7.417969 26.410156 L 6.394531 26.410156 C 6.167969 26.410156 5.988281 26.59375 5.988281 26.816406 C 5.988281 27.042969 6.167969 27.226562 6.394531 27.226562 L 7.417969 27.226562 C 7.644531 27.226562 7.828125 27.042969 7.828125 26.816406 C 7.828125 26.59375 7.644531 26.410156 7.417969 26.410156 Z M 4.835938 26.410156 L 3.808594 26.410156 C 3.585938 26.410156 3.402344 26.59375 3.402344 26.816406 C 3.402344 27.042969 3.585938 27.226562 3.808594 27.226562 L 4.835938 27.226562 C 5.058594 27.226562 5.242188 27.042969 5.242188 26.816406 C 5.242188 26.59375 5.058594 26.410156 4.835938 26.410156 Z M 3.308594 3.78125 L 26.6875 3.78125 C 27.882812 3.78125 28.851562 4.753906 28.851562 5.949219 L 28.851562 21.523438 C 28.851562 22.496094 28.210938 23.332031 27.3125 23.601562 L 27.3125 27.273438 C 27.3125 27.632812 27.023438 27.925781 26.664062 27.925781 L 22.484375 27.925781 C 22.121094 27.925781 21.824219 27.632812 21.824219 27.273438 L 21.824219 23.695312 L 17.824219 23.695312 L 18.386719 25.867188 L 19.347656 25.867188 C 20.421875 25.867188 21.292969 26.738281 21.292969 27.8125 L 21.292969 27.9375 C 21.292969 28.433594 20.890625 28.839844 20.390625 28.839844 L 9.597656 28.839844 C 9.101562 28.839844 8.695312 28.433594 8.695312 27.9375 L 8.695312 27.8125 C 8.695312 26.738281 9.570312 25.867188 10.640625 25.867188 L 11.609375 25.867188 L 12.171875 23.695312 L 3.308594 23.695312 C 2.113281 23.695312 1.144531 22.722656 1.144531 21.523438 L 1.144531 5.949219 C 1.144531 4.753906 2.113281 3.78125 3.308594 3.78125 Z M 18.597656 26.679688 L 10.640625 26.679688 C 10.019531 26.679688 9.511719 27.1875 9.511719 27.8125 L 9.511719 27.9375 C 9.511719 27.988281 9.546875 28.027344 9.597656 28.027344 L 20.390625 28.027344 C 20.445312 28.027344 20.480469 27.980469 20.480469 27.9375 L 20.480469 27.8125 C 20.480469 27.1875 19.972656 26.679688 19.347656 26.679688 Z M 16.984375 23.695312 L 13.011719 23.695312 L 12.449219 25.867188 L 17.546875 25.867188 Z M 26.5 23.734375 L 26.5 22.449219 L 22.640625 22.449219 L 22.640625 27.113281 L 26.5 27.113281 Z M 28.039062 20.433594 L 1.957031 20.433594 L 1.957031 21.523438 C 1.957031 22.273438 2.5625 22.882812 3.308594 22.882812 L 21.824219 22.882812 L 21.824219 22.289062 C 21.824219 21.929688 22.121094 21.636719 22.484375 21.636719 L 22.941406 21.636719 L 22.941406 21.222656 C 22.941406 21 23.121094 20.816406 23.347656 20.816406 C 23.570312 20.816406 23.753906 21 23.753906 21.222656 L 23.753906 21.636719 L 25.394531 21.636719 L 25.394531 21.222656 C 25.394531 21 25.574219 20.816406 25.800781 20.816406 C 26.023438 20.816406 26.207031 21 26.207031 21.222656 L 26.207031 21.636719 L 26.664062 21.636719 C 27.027344 21.636719 27.3125 21.921875 27.3125 22.289062 L 27.3125 22.730469 C 27.75 22.5 28.039062 22.042969 28.039062 21.523438 Z M 26.6875 4.597656 L 3.308594 4.597656 C 2.5625 4.597656 1.957031 5.203125 1.957031 5.949219 L 1.957031 19.617188 L 28.039062 19.617188 L 28.039062 5.949219 C 28.039062 5.203125 27.433594 4.597656 26.6875 4.597656 Z M 14.289062 22.035156 L 15.707031 22.035156 C 15.929688 22.035156 16.113281 21.855469 16.113281 21.628906 C 16.113281 21.40625 15.929688 21.222656 15.707031 21.222656 L 14.289062 21.222656 C 14.066406 21.222656 13.882812 21.40625 13.882812 21.628906 C 13.882812 21.855469 14.066406 22.035156 14.289062 22.035156 Z M 3.410156 17.53125 L 4.160156 17.53125 L 4.160156 14.746094 C 4.160156 14.367188 4.46875 14.058594 4.847656 14.058594 L 6.511719 14.058594 C 6.890625 14.058594 7.199219 14.367188 7.199219 14.746094 L 7.199219 17.53125 L 8.089844 17.53125 L 8.089844 12.84375 C 8.089844 12.464844 8.398438 12.15625 8.777344 12.15625 L 10.441406 12.15625 C 10.820312 12.15625 11.128906 12.464844 11.128906 12.84375 L 11.128906 17.53125 L 12 17.53125 L 12 11.136719 C 12 10.757812 12.308594 10.449219 12.6875 10.449219 L 14.355469 10.449219 C 14.734375 10.449219 15.042969 10.757812 15.042969 11.136719 L 15.042969 17.53125 L 15.878906 17.53125 C 16.105469 17.53125 16.289062 17.714844 16.289062 17.9375 C 16.289062 18.164062 16.105469 18.34375 15.878906 18.34375 L 3.410156 18.34375 C 3.183594 18.34375 3 18.164062 3 17.9375 C 3 17.714844 3.183594 17.53125 3.410156 17.53125 Z M 12.8125 17.53125 L 14.230469 17.53125 L 14.230469 11.261719 L 12.8125 11.261719 Z M 8.902344 17.53125 L 10.316406 17.53125 L 10.316406 12.96875 L 8.902344 12.96875 Z M 4.972656 17.53125 L 6.386719 17.53125 L 6.386719 14.871094 L 4.972656 14.871094 Z M 4.738281 11.84375 C 4.640625 11.640625 4.726562 11.398438 4.929688 11.300781 L 11.589844 8.089844 L 11.300781 7.488281 C 11.210938 7.304688 11.226562 7.078125 11.34375 6.902344 C 11.464844 6.726562 11.667969 6.632812 11.882812 6.648438 L 14.015625 6.808594 C 14.226562 6.828125 14.414062 6.957031 14.5 7.152344 C 14.589844 7.347656 14.566406 7.566406 14.4375 7.742188 L 13.242188 9.492188 C 13.125 9.660156 12.949219 9.75 12.761719 9.75 C 12.742188 9.75 12.726562 9.746094 12.710938 9.746094 C 12.503906 9.730469 12.324219 9.609375 12.230469 9.421875 L 11.945312 8.824219 L 5.28125 12.035156 C 5.222656 12.0625 5.164062 12.074219 5.105469 12.074219 C 4.953125 12.074219 4.808594 11.988281 4.738281 11.84375 Z M 12.207031 7.488281 L 12.792969 8.710938 L 13.558594 7.589844 Z M 19.023438 13.925781 L 19.023438 6.875 C 19.023438 6.515625 19.3125 6.222656 19.671875 6.222656 L 25.625 6.222656 C 25.988281 6.222656 26.273438 6.507812 26.273438 6.875 L 26.273438 13.925781 C 26.273438 14.285156 25.984375 14.578125 25.625 14.578125 L 19.671875 14.578125 C 19.3125 14.578125 19.023438 14.285156 19.023438 13.925781 Z M 19.835938 13.765625 L 25.460938 13.765625 L 25.460938 7.035156 L 19.835938 7.035156 Z M 24.390625 7.742188 L 21.75 7.742188 C 21.527344 7.742188 21.34375 7.925781 21.34375 8.152344 C 21.34375 8.375 21.527344 8.558594 21.75 8.558594 L 24.390625 8.558594 C 24.617188 8.558594 24.796875 8.375 24.796875 8.152344 C 24.796875 7.925781 24.617188 7.742188 24.390625 7.742188 Z M 24.390625 9.269531 L 20.898438 9.269531 C 20.675781 9.269531 20.492188 9.453125 20.492188 9.675781 C 20.492188 9.902344 20.675781 10.085938 20.898438 10.085938 L 24.390625 10.085938 C 24.617188 10.085938 24.796875 9.902344 24.796875 9.675781 C 24.796875 9.453125 24.617188 9.269531 24.390625 9.269531 Z M 24.390625 10.773438 L 20.898438 10.773438 C 20.675781 10.773438 20.492188 10.953125 20.492188 11.179688 C 20.492188 11.402344 20.675781 11.585938 20.898438 11.585938 L 24.390625 11.585938 C 24.617188 11.585938 24.796875 11.402344 24.796875 11.179688 C 24.796875 10.953125 24.617188 10.773438 24.390625 10.773438 Z M 24.390625 12.238281 L 20.898438 12.238281 C 20.675781 12.238281 20.492188 12.417969 20.492188 12.644531 C 20.492188 12.867188 20.675781 13.050781 20.898438 13.050781 L 24.390625 13.050781 C 24.617188 13.050781 24.796875 12.867188 24.796875 12.644531 C 24.796875 12.417969 24.617188 12.238281 24.390625 12.238281 Z M 25.566406 22.894531 L 23.578125 22.894531 C 23.351562 22.894531 23.171875 23.078125 23.171875 23.300781 C 23.171875 23.527344 23.351562 23.707031 23.578125 23.707031 L 25.566406 23.707031 C 25.792969 23.707031 25.972656 23.527344 25.972656 23.300781 C 25.972656 23.078125 25.792969 22.894531 25.566406 22.894531 Z M 25.566406 24.390625 L 23.578125 24.390625 C 23.351562 24.390625 23.171875 24.574219 23.171875 24.796875 C 23.171875 25.019531 23.351562 25.203125 23.578125 25.203125 L 25.566406 25.203125 C 25.792969 25.203125 25.972656 25.019531 25.972656 24.796875 C 25.972656 24.574219 25.792969 24.390625 25.566406 24.390625 Z M 25.566406 25.855469 L 23.578125 25.855469 C 23.351562 25.855469 23.171875 26.035156 23.171875 26.261719 C 23.171875 26.484375 23.351562 26.667969 23.578125 26.667969 L 25.566406 26.667969 C 25.792969 26.667969 25.972656 26.484375 25.972656 26.261719 C 25.972656 26.035156 25.792969 25.855469 25.566406 25.855469 Z M 25.566406 25.855469 " fill-opacity="1" fill-rule="nonzero"/></g></svg>