<svg xmlns="http://www.w3.org/2000/svg" xmlns:xlink="http://www.w3.org/1999/xlink" width="40" zoomAndPan="magnify" viewBox="0 0 30 30.000001" height="40" preserveAspectRatio="xMidYMid meet" version="1.0"><defs><clipPath id="084fea960d"><path d="M 3.390625 3 L 16 3 L 16 26.445312 L 3.390625 26.445312 Z M 3.390625 3 " clip-rule="nonzero"/></clipPath><clipPath id="1114b8798a"><path d="M 16 19 L 19 19 L 19 26.445312 L 16 26.445312 Z M 16 19 " clip-rule="nonzero"/></clipPath><clipPath id="eadbb4cb84"><path d="M 19 13 L 26.617188 13 L 26.617188 16 L 19 16 Z M 19 13 " clip-rule="nonzero"/></clipPath></defs><path fill="#5e17eb" d="M 6.988281 13.761719 L 5.710938 13.761719 C 5.484375 13.761719 5.300781 13.578125 5.300781 13.351562 C 5.300781 13.125 5.484375 12.941406 5.710938 12.941406 L 6.988281 12.941406 C 7.214844 12.941406 7.398438 13.125 7.398438 13.351562 C 7.398438 13.578125 7.214844 13.761719 6.988281 13.761719 Z M 6.988281 13.761719 " fill-opacity="1" fill-rule="nonzero"/><path fill="#5e17eb" d="M 10.1875 16.9375 L 9.703125 16.9375 C 9.476562 16.9375 9.292969 16.753906 9.292969 16.527344 C 9.292969 16.296875 9.476562 16.113281 9.703125 16.113281 L 10.1875 16.113281 C 10.414062 16.113281 10.597656 16.296875 10.597656 16.527344 C 10.597656 16.753906 10.414062 16.9375 10.1875 16.9375 Z M 10.1875 16.9375 " fill-opacity="1" fill-rule="nonzero"/><g clip-path="url(#084fea960d)"><path fill="#5e17eb" d="M 14.945312 26.109375 C 12.628906 26.109375 8.40625 26.109375 7.914062 23.117188 C 6.609375 23.230469 5.234375 22.546875 4.511719 21.371094 C 3.886719 20.359375 3.898438 19.230469 4.527344 18.28125 C 3.769531 17.515625 3.410156 16.472656 3.5625 15.421875 C 3.703125 14.46875 4.25 13.660156 5.054688 13.1875 C 4.542969 11.960938 4.546875 10.644531 5.082031 9.515625 C 5.65625 8.3125 6.761719 7.457031 8.21875 7.082031 C 8.335938 6.597656 8.585938 6.214844 8.96875 5.941406 C 9.582031 5.503906 10.378906 5.484375 10.835938 5.519531 C 11.949219 2.492188 14.996094 3.09375 15.027344 3.101562 C 15.21875 3.140625 15.355469 3.308594 15.355469 3.503906 L 15.355469 9.671875 C 15.355469 9.898438 15.171875 10.085938 14.945312 10.085938 C 14.71875 10.085938 14.53125 9.898438 14.53125 9.671875 L 14.53125 3.867188 C 13.816406 3.828125 12.140625 3.96875 11.515625 6.085938 C 11.453125 6.289062 11.246094 6.414062 11.039062 6.371094 C 11.03125 6.371094 10.046875 6.179688 9.441406 6.613281 C 9.183594 6.800781 9.03125 7.082031 8.980469 7.472656 C 8.957031 7.644531 8.828125 7.785156 8.65625 7.820312 C 7.324219 8.101562 6.320312 8.828125 5.824219 9.867188 C 5.347656 10.878906 5.394531 12.089844 5.960938 13.1875 C 6.015625 13.289062 6.023438 13.410156 5.984375 13.515625 C 5.945312 13.625 5.859375 13.710938 5.753906 13.753906 C 5 14.070312 4.496094 14.722656 4.375 15.542969 C 4.246094 16.429688 4.605469 17.316406 5.339844 17.910156 C 5.421875 17.980469 5.476562 18.082031 5.488281 18.191406 C 5.496094 18.304688 5.464844 18.414062 5.390625 18.496094 C 4.769531 19.226562 4.703125 20.117188 5.210938 20.941406 C 5.75 21.816406 6.945312 22.546875 8.183594 22.242188 C 8.304688 22.214844 8.429688 22.238281 8.527344 22.3125 C 8.628906 22.386719 8.6875 22.503906 8.691406 22.628906 C 8.765625 24.753906 11.0625 25.25 14.53125 25.285156 L 14.53125 19.53125 C 14.53125 19.300781 14.71875 19.117188 14.945312 19.117188 C 15.171875 19.117188 15.355469 19.300781 15.355469 19.53125 L 15.355469 25.699219 C 15.355469 25.925781 15.171875 26.109375 14.945312 26.109375 Z M 14.945312 26.109375 " fill-opacity="1" fill-rule="nonzero"/></g><path fill="#5e17eb" d="M 17.339844 3.09375 C 16.636719 3.09375 16.066406 3.664062 16.066406 4.367188 C 16.066406 4.925781 16.429688 5.394531 16.929688 5.566406 L 16.929688 9.832031 C 16.929688 10.0625 17.113281 10.246094 17.339844 10.246094 C 17.566406 10.246094 17.75 10.0625 17.75 9.832031 L 17.75 5.566406 C 18.253906 5.394531 18.617188 4.925781 18.617188 4.367188 C 18.617188 3.664062 18.042969 3.09375 17.339844 3.09375 Z M 17.339844 3.09375 " fill-opacity="1" fill-rule="nonzero"/><g clip-path="url(#1114b8798a)"><path fill="#5e17eb" d="M 17.75 23.632812 L 17.75 19.46875 C 17.75 19.238281 17.566406 19.054688 17.339844 19.054688 C 17.113281 19.054688 16.929688 19.238281 16.929688 19.46875 L 16.929688 23.632812 C 16.429688 23.804688 16.066406 24.277344 16.066406 24.835938 C 16.066406 25.539062 16.636719 26.109375 17.339844 26.109375 C 18.042969 26.109375 18.617188 25.539062 18.617188 24.835938 C 18.617188 24.277344 18.253906 23.804688 17.75 23.632812 Z M 17.75 23.632812 " fill-opacity="1" fill-rule="nonzero"/></g><g clip-path="url(#eadbb4cb84)"><path fill="#5e17eb" d="M 25.292969 13.328125 C 24.734375 13.328125 24.265625 13.6875 24.089844 14.191406 L 19.710938 14.191406 C 19.480469 14.191406 19.296875 14.375 19.296875 14.601562 C 19.296875 14.828125 19.480469 15.011719 19.710938 15.011719 L 24.089844 15.011719 C 24.265625 15.511719 24.734375 15.875 25.292969 15.875 C 25.996094 15.875 26.566406 15.304688 26.566406 14.601562 C 26.566406 13.898438 25.996094 13.328125 25.292969 13.328125 Z M 25.292969 13.328125 " fill-opacity="1" fill-rule="nonzero"/></g><path fill="#5e17eb" d="M 19.710938 12.46875 L 20.988281 12.46875 C 21.074219 12.46875 21.15625 12.441406 21.226562 12.390625 L 23.816406 10.519531 C 24 10.625 24.210938 10.6875 24.441406 10.6875 C 25.140625 10.6875 25.714844 10.117188 25.714844 9.414062 C 25.714844 8.710938 25.140625 8.140625 24.441406 8.140625 C 23.738281 8.140625 23.164062 8.710938 23.164062 9.414062 C 23.164062 9.585938 23.199219 9.753906 23.261719 9.902344 L 20.855469 11.648438 L 19.710938 11.648438 C 19.484375 11.648438 19.300781 11.832031 19.300781 12.058594 C 19.300781 12.289062 19.484375 12.472656 19.710938 12.472656 Z M 19.710938 12.46875 " fill-opacity="1" fill-rule="nonzero"/><path fill="#5e17eb" d="M 24.441406 18.511719 C 24.210938 18.511719 24 18.578125 23.816406 18.683594 L 21.230469 16.808594 C 21.160156 16.757812 21.074219 16.730469 20.988281 16.730469 L 19.710938 16.730469 C 19.484375 16.730469 19.300781 16.914062 19.300781 17.144531 C 19.300781 17.371094 19.484375 17.554688 19.710938 17.554688 L 20.855469 17.554688 L 23.261719 19.300781 C 23.199219 19.449219 23.164062 19.613281 23.164062 19.789062 C 23.164062 20.492188 23.738281 21.0625 24.441406 21.0625 C 25.144531 21.0625 25.714844 20.492188 25.714844 19.789062 C 25.714844 19.085938 25.144531 18.511719 24.441406 18.511719 Z M 24.441406 18.511719 " fill-opacity="1" fill-rule="nonzero"/><path fill="#5e17eb" d="M 7.679688 15.117188 C 7.453125 15.117188 7.269531 14.933594 7.269531 14.707031 C 7.269531 14.476562 7.453125 14.292969 7.679688 14.292969 C 8.117188 14.292969 8.476562 13.9375 8.476562 13.5 C 8.476562 13.0625 8.117188 12.703125 7.679688 12.703125 C 7.453125 12.703125 7.269531 12.519531 7.269531 12.292969 C 7.269531 12.066406 7.453125 11.882812 7.679688 11.882812 C 8.570312 11.882812 9.296875 12.609375 9.296875 13.5 C 9.296875 14.390625 8.570312 15.117188 7.679688 15.117188 Z M 7.679688 15.117188 " fill-opacity="1" fill-rule="nonzero"/><path fill="#5e17eb" d="M 11.453125 10.242188 C 11.226562 10.242188 11.042969 10.058594 11.042969 9.832031 C 11.042969 9.605469 11.226562 9.421875 11.453125 9.421875 C 11.894531 9.421875 12.25 9.066406 12.25 8.628906 C 12.25 8.1875 11.894531 7.832031 11.453125 7.832031 C 11.226562 7.832031 11.042969 7.648438 11.042969 7.421875 C 11.042969 7.191406 11.226562 7.007812 11.453125 7.007812 C 12.347656 7.007812 13.070312 7.734375 13.070312 8.628906 C 13.070312 9.519531 12.347656 10.242188 11.453125 10.242188 Z M 11.453125 10.242188 " fill-opacity="1" fill-rule="nonzero"/><path fill="#5e17eb" d="M 7.867188 16.941406 C 6.882812 16.941406 6.074219 16.554688 5.632812 15.867188 C 5.511719 15.675781 5.566406 15.421875 5.757812 15.296875 C 5.949219 15.175781 6.203125 15.234375 6.324219 15.421875 C 6.628906 15.898438 7.269531 16.15625 8.039062 16.117188 C 8.261719 16.09375 8.460938 16.277344 8.472656 16.503906 C 8.484375 16.730469 8.308594 16.921875 8.082031 16.9375 C 8.011719 16.941406 7.9375 16.941406 7.867188 16.941406 Z M 7.867188 16.941406 " fill-opacity="1" fill-rule="nonzero"/><path fill="#5e17eb" d="M 10.085938 11.523438 C 9.140625 11.523438 8.382812 11.144531 7.9375 10.445312 C 7.816406 10.257812 7.871094 10 8.0625 9.878906 C 8.253906 9.757812 8.507812 9.8125 8.628906 10.003906 C 9.027344 10.628906 9.726562 10.71875 10.242188 10.695312 C 10.46875 10.671875 10.664062 10.859375 10.675781 11.085938 C 10.6875 11.3125 10.515625 11.503906 10.289062 11.515625 C 10.21875 11.519531 10.152344 11.523438 10.085938 11.523438 Z M 10.085938 11.523438 " fill-opacity="1" fill-rule="nonzero"/><path fill="#5e17eb" d="M 8.285156 23.054688 C 8.113281 23.054688 7.953125 22.945312 7.894531 22.773438 C 7.820312 22.558594 7.9375 22.324219 8.152344 22.253906 L 8.363281 22.183594 C 9.160156 21.929688 9.984375 21.664062 10.171875 20.265625 C 10.203125 20.039062 10.410156 19.882812 10.632812 19.914062 C 10.859375 19.941406 11.015625 20.148438 10.984375 20.375 C 10.730469 22.289062 9.457031 22.695312 8.613281 22.96875 L 8.414062 23.03125 C 8.371094 23.046875 8.328125 23.054688 8.285156 23.054688 Z M 8.285156 23.054688 " fill-opacity="1" fill-rule="nonzero"/><path fill="#5e17eb" d="M 11.6875 23.308594 C 11.597656 23.308594 11.507812 23.277344 11.433594 23.21875 C 11.253906 23.078125 11.226562 22.816406 11.367188 22.640625 C 12.199219 21.601562 13.398438 21.386719 14.945312 21.386719 C 15.171875 21.386719 15.355469 21.570312 15.355469 21.796875 C 15.355469 22.027344 15.171875 22.210938 14.945312 22.210938 C 13.335938 22.210938 12.570312 22.457031 12.011719 23.15625 C 11.929688 23.253906 11.808594 23.308594 11.6875 23.308594 Z M 11.6875 23.308594 " fill-opacity="1" fill-rule="nonzero"/><path fill="#5e17eb" d="M 6.871094 20.636719 C 6.808594 20.636719 6.742188 20.621094 6.679688 20.585938 C 6.480469 20.480469 6.402344 20.230469 6.511719 20.03125 L 6.746094 19.589844 C 7.167969 18.792969 7.996094 18.300781 8.898438 18.300781 L 9.976562 18.300781 C 10.203125 18.300781 10.390625 18.484375 10.390625 18.710938 C 10.390625 18.9375 10.203125 19.121094 9.976562 19.121094 L 8.898438 19.121094 C 8.296875 19.121094 7.75 19.449219 7.46875 19.976562 L 7.234375 20.417969 C 7.160156 20.554688 7.019531 20.632812 6.871094 20.632812 Z M 6.871094 20.636719 " fill-opacity="1" fill-rule="nonzero"/><path fill="#5e17eb" d="M 9.886719 7.832031 L 8.570312 7.832031 C 8.34375 7.832031 8.160156 7.648438 8.160156 7.421875 C 8.160156 7.195312 8.34375 7.011719 8.570312 7.011719 L 9.886719 7.011719 C 10.113281 7.011719 10.300781 7.195312 10.300781 7.421875 C 10.300781 7.648438 10.113281 7.832031 9.886719 7.832031 Z M 9.886719 7.832031 " fill-opacity="1" fill-rule="nonzero"/><path fill="#5e17eb" d="M 17.414062 10.699219 L 12.472656 10.699219 C 11.683594 10.699219 11.042969 11.34375 11.042969 12.128906 L 11.042969 17.070312 C 11.042969 17.859375 11.683594 18.5 12.472656 18.5 L 17.414062 18.5 C 18.203125 18.5 18.84375 17.859375 18.84375 17.070312 L 18.84375 12.128906 C 18.84375 11.34375 18.203125 10.699219 17.414062 10.699219 Z M 15.5 16.859375 C 15.457031 16.875 15.414062 16.878906 15.375 16.878906 C 15.199219 16.878906 15.039062 16.769531 14.980469 16.59375 L 14.839844 16.144531 L 13.515625 16.144531 L 13.375 16.59375 C 13.316406 16.769531 13.15625 16.878906 12.980469 16.878906 C 12.941406 16.878906 12.898438 16.875 12.855469 16.859375 C 12.640625 16.792969 12.519531 16.558594 12.589844 16.34375 L 13.785156 12.605469 C 13.789062 12.597656 13.796875 12.589844 13.800781 12.578125 C 13.8125 12.550781 13.828125 12.527344 13.84375 12.503906 C 13.859375 12.484375 13.871094 12.464844 13.890625 12.445312 C 13.910156 12.425781 13.929688 12.414062 13.949219 12.398438 C 13.972656 12.382812 13.996094 12.367188 14.023438 12.359375 C 14.035156 12.351562 14.042969 12.34375 14.050781 12.339844 C 14.066406 12.335938 14.082031 12.339844 14.09375 12.335938 C 14.121094 12.332031 14.148438 12.328125 14.175781 12.328125 C 14.207031 12.328125 14.234375 12.332031 14.261719 12.335938 C 14.273438 12.339844 14.289062 12.335938 14.300781 12.339844 C 14.3125 12.34375 14.320312 12.351562 14.332031 12.355469 C 14.359375 12.367188 14.382812 12.382812 14.40625 12.398438 C 14.425781 12.414062 14.445312 12.425781 14.464844 12.445312 C 14.484375 12.464844 14.496094 12.484375 14.511719 12.503906 C 14.527344 12.527344 14.542969 12.550781 14.550781 12.578125 C 14.554688 12.589844 14.566406 12.597656 14.570312 12.605469 L 15.765625 16.34375 C 15.832031 16.558594 15.714844 16.789062 15.5 16.859375 Z M 17.316406 16.46875 C 17.316406 16.695312 17.132812 16.878906 16.90625 16.878906 C 16.679688 16.878906 16.496094 16.695312 16.496094 16.46875 L 16.496094 12.734375 C 16.496094 12.503906 16.679688 12.320312 16.90625 12.320312 C 17.132812 12.320312 17.316406 12.503906 17.316406 12.734375 Z M 17.316406 16.46875 " fill-opacity="1" fill-rule="nonzero"/><path fill="#5e17eb" d="M 13.78125 15.324219 L 14.574219 15.324219 L 14.179688 14.082031 Z M 13.78125 15.324219 " fill-opacity="1" fill-rule="nonzero"/></svg>