<svg xmlns="http://www.w3.org/2000/svg" xmlns:xlink="http://www.w3.org/1999/xlink" width="40" zoomAndPan="magnify" viewBox="0 0 30 30.000001" height="40" preserveAspectRatio="xMidYMid meet" version="1.0"><defs><clipPath id="87b919a782"><path d="M 7 1.199219 L 27 1.199219 L 27 24 L 7 24 Z M 7 1.199219 " clip-rule="nonzero"/></clipPath><clipPath id="23cfeaf15d"><path d="M 20 1.199219 L 27 1.199219 L 27 7 L 20 7 Z M 20 1.199219 " clip-rule="nonzero"/></clipPath></defs><path fill="#5e17eb" d="M 18.300781 5.703125 L 10.972656 5.703125 C 10.800781 5.703125 10.660156 5.5625 10.660156 5.390625 L 10.660156 3.503906 C 10.660156 3.332031 10.800781 3.191406 10.972656 3.191406 L 18.300781 3.191406 C 18.472656 3.191406 18.613281 3.332031 18.613281 3.503906 L 18.613281 5.390625 C 18.613281 5.5625 18.472656 5.703125 18.300781 5.703125 Z M 11.285156 5.078125 L 17.988281 5.078125 L 17.988281 3.816406 L 11.285156 3.816406 Z M 11.285156 5.078125 " fill-opacity="1" fill-rule="evenodd"/><g clip-path="url(#87b919a782)"><path fill="#5e17eb" d="M 25.628906 23.914062 L 10.289062 23.914062 C 10.117188 23.914062 9.976562 23.773438 9.976562 23.601562 C 9.976562 23.429688 10.117188 23.289062 10.289062 23.289062 L 25.347656 23.289062 C 25.644531 20.605469 25.566406 12.84375 25.425781 6.5625 L 20.949219 6.5625 C 20.78125 6.5625 20.640625 6.421875 20.640625 6.25 L 20.640625 1.835938 L 8.417969 1.835938 C 8.277344 3.894531 7.480469 16.257812 8.058594 21.605469 C 8.074219 21.777344 7.949219 21.933594 7.777344 21.964844 C 7.605469 21.980469 7.464844 21.855469 7.433594 21.683594 C 6.796875 15.804688 7.808594 1.648438 7.824219 1.507812 C 7.839844 1.339844 7.964844 1.214844 8.136719 1.214844 L 20.949219 1.214844 C 21.121094 1.214844 21.261719 1.351562 21.261719 1.523438 L 21.261719 5.9375 L 25.738281 5.9375 C 25.910156 5.9375 26.050781 6.0625 26.050781 6.234375 C 26.1875 12.828125 26.28125 21.183594 25.941406 23.632812 C 25.925781 23.789062 25.785156 23.914062 25.628906 23.914062 Z M 25.628906 23.914062 " fill-opacity="1" fill-rule="evenodd"/></g><path fill="#5e17eb" d="M 22.617188 26.5 L 7.839844 26.5 C 7.667969 26.5 7.527344 26.359375 7.527344 26.1875 C 7.527344 26.015625 7.667969 25.875 7.839844 25.875 L 22.339844 25.875 C 22.402344 25.347656 22.449219 24.582031 22.480469 23.585938 C 22.480469 23.414062 22.617188 23.289062 22.789062 23.289062 C 22.960938 23.289062 23.101562 23.429688 23.101562 23.601562 C 23.054688 24.800781 22.992188 25.691406 22.929688 26.234375 C 22.898438 26.390625 22.773438 26.5 22.617188 26.5 Z M 4.785156 24.925781 C 4.628906 24.925781 4.488281 24.800781 4.472656 24.644531 C 3.738281 19 4.800781 4.253906 4.800781 4.097656 C 4.816406 3.941406 4.957031 3.816406 5.109375 3.816406 L 7.964844 3.816406 C 8.136719 3.816406 8.277344 3.957031 8.277344 4.128906 C 8.277344 4.300781 8.136719 4.441406 7.964844 4.441406 L 5.40625 4.441406 C 5.265625 6.53125 4.425781 19.421875 5.082031 24.566406 C 5.109375 24.738281 4.988281 24.894531 4.816406 24.910156 C 4.800781 24.925781 4.785156 24.925781 4.785156 24.925781 Z M 4.785156 24.925781 " fill-opacity="1" fill-rule="evenodd"/><g clip-path="url(#23cfeaf15d)"><path fill="#5e17eb" d="M 25.738281 6.5625 L 20.949219 6.5625 C 20.78125 6.5625 20.640625 6.421875 20.640625 6.25 L 20.640625 1.523438 C 20.640625 1.398438 20.703125 1.292969 20.828125 1.246094 C 20.933594 1.199219 21.074219 1.214844 21.167969 1.308594 L 25.957031 6.015625 C 26.050781 6.109375 26.082031 6.25 26.035156 6.359375 C 25.988281 6.484375 25.863281 6.5625 25.738281 6.5625 Z M 21.261719 5.9375 L 24.972656 5.9375 L 21.261719 2.273438 Z M 21.261719 5.9375 " fill-opacity="1" fill-rule="evenodd"/></g><path fill="#5e17eb" d="M 5.84375 27.824219 C 5.34375 27.824219 4.847656 27.621094 4.457031 27.25 C 3.707031 26.484375 3.707031 25.238281 4.457031 24.472656 L 7.417969 21.527344 C 7.808594 21.136719 8.371094 20.917969 8.929688 20.964844 L 10.488281 19.40625 C 10.613281 19.296875 10.800781 19.296875 10.925781 19.40625 C 11.050781 19.53125 11.050781 19.734375 10.925781 19.859375 L 9.273438 21.511719 C 9.195312 21.589844 9.101562 21.621094 9.007812 21.605469 C 8.589844 21.542969 8.152344 21.667969 7.855469 21.980469 L 4.910156 24.925781 C 4.378906 25.441406 4.378906 26.28125 4.910156 26.8125 C 5.421875 27.328125 6.265625 27.328125 6.796875 26.8125 L 9.742188 23.851562 C 10.039062 23.554688 10.179688 23.132812 10.117188 22.710938 C 10.101562 22.601562 10.132812 22.507812 10.195312 22.445312 L 11.863281 20.777344 C 11.972656 20.652344 12.171875 20.652344 12.296875 20.777344 C 12.421875 20.902344 12.421875 21.105469 12.296875 21.230469 L 10.738281 22.773438 C 10.785156 23.335938 10.582031 23.898438 10.179688 24.300781 L 7.230469 27.25 C 6.84375 27.621094 6.34375 27.824219 5.84375 27.824219 Z M 5.84375 27.824219 " fill-opacity="1" fill-rule="evenodd"/><path fill="#5e17eb" d="M 12.5 21.746094 C 12.421875 21.746094 12.34375 21.714844 12.28125 21.652344 L 10.070312 19.421875 C 9.960938 19.328125 9.945312 19.1875 10.007812 19.0625 L 10.566406 17.957031 C 9.695312 15.789062 10.179688 13.359375 11.832031 11.691406 C 12.9375 10.597656 14.386719 9.992188 15.929688 9.992188 C 17.472656 9.992188 18.925781 10.597656 20.015625 11.691406 C 22.277344 13.949219 22.277344 17.613281 20.015625 19.875 C 18.925781 20.964844 17.472656 21.574219 15.929688 21.574219 C 15.183594 21.574219 14.449219 21.417969 13.75 21.136719 L 12.640625 21.699219 C 12.59375 21.730469 12.546875 21.746094 12.5 21.746094 Z M 10.660156 19.140625 L 12.5625 21.042969 L 13.59375 20.53125 C 13.6875 20.484375 13.78125 20.484375 13.855469 20.515625 C 14.511719 20.792969 15.214844 20.949219 15.929688 20.949219 C 17.304688 20.949219 18.597656 20.40625 19.578125 19.4375 C 21.589844 17.425781 21.589844 14.136719 19.578125 12.125 C 18.597656 11.160156 17.304688 10.613281 15.929688 10.613281 C 14.542969 10.613281 13.25 11.160156 12.28125 12.125 C 10.769531 13.636719 10.347656 15.882812 11.191406 17.847656 C 11.238281 17.925781 11.238281 18.035156 11.191406 18.113281 Z M 10.660156 19.140625 " fill-opacity="1" fill-rule="evenodd"/><path fill="#5e17eb" d="M 15.929688 20.390625 C 14.699219 20.390625 13.53125 19.921875 12.671875 19.046875 C 11.800781 18.175781 11.316406 17.023438 11.316406 15.789062 C 11.316406 14.542969 11.800781 13.390625 12.671875 12.515625 C 13.53125 11.644531 14.699219 11.175781 15.929688 11.175781 C 17.164062 11.175781 18.316406 11.644531 19.1875 12.515625 C 20.0625 13.390625 20.546875 14.542969 20.546875 15.789062 C 20.546875 17.023438 20.0625 18.175781 19.1875 19.046875 C 18.316406 19.921875 17.164062 20.390625 15.929688 20.390625 Z M 15.929688 11.800781 C 14.855469 11.800781 13.855469 12.203125 13.109375 12.96875 C 12.359375 13.714844 11.941406 14.714844 11.941406 15.773438 C 11.941406 16.851562 12.359375 17.847656 13.109375 18.597656 C 13.855469 19.359375 14.855469 19.765625 15.929688 19.765625 C 16.992188 19.765625 17.988281 19.359375 18.753906 18.597656 C 19.5 17.847656 19.921875 16.851562 19.921875 15.773438 C 19.921875 14.714844 19.5 13.714844 18.753906 12.96875 C 17.988281 12.203125 16.992188 11.800781 15.929688 11.800781 Z M 15.929688 11.800781 " fill-opacity="1" fill-rule="evenodd"/><path fill="#5e17eb" d="M 6.171875 26.890625 C 6.078125 26.890625 6 26.859375 5.9375 26.796875 L 4.910156 25.769531 C 4.847656 25.707031 4.816406 25.628906 4.816406 25.550781 C 4.816406 25.457031 4.847656 25.378906 4.910156 25.332031 L 8.027344 22.199219 C 8.152344 22.089844 8.355469 22.089844 8.480469 22.199219 L 9.507812 23.242188 C 9.570312 23.289062 9.601562 23.382812 9.601562 23.460938 C 9.601562 23.539062 9.570312 23.617188 9.507812 23.679688 L 6.390625 26.796875 C 6.328125 26.859375 6.25 26.890625 6.171875 26.890625 Z M 5.5625 25.550781 L 6.171875 26.140625 L 8.835938 23.460938 L 8.246094 22.867188 Z M 5.5625 25.550781 " fill-opacity="1" fill-rule="evenodd"/><path fill="#5e17eb" d="M 14.339844 18.175781 L 13.421875 18.175781 C 13.25 18.175781 13.109375 18.035156 13.109375 17.863281 L 13.109375 15.351562 C 13.109375 15.183594 13.25 15.042969 13.421875 15.042969 L 14.339844 15.042969 C 14.511719 15.042969 14.652344 15.183594 14.652344 15.351562 L 14.652344 17.863281 C 14.652344 18.035156 14.511719 18.175781 14.339844 18.175781 Z M 13.734375 17.550781 L 14.027344 17.550781 L 14.027344 15.664062 L 13.734375 15.664062 Z M 13.734375 17.550781 " fill-opacity="1" fill-rule="evenodd"/><path fill="#5e17eb" d="M 16.382812 18.175781 L 15.464844 18.175781 C 15.292969 18.175781 15.152344 18.035156 15.152344 17.863281 L 15.152344 14.386719 C 15.152344 14.214844 15.292969 14.074219 15.464844 14.074219 L 16.382812 14.074219 C 16.554688 14.074219 16.695312 14.214844 16.695312 14.386719 L 16.695312 17.863281 C 16.695312 18.035156 16.554688 18.175781 16.382812 18.175781 Z M 15.773438 17.550781 L 16.070312 17.550781 L 16.070312 14.699219 L 15.773438 14.699219 Z M 15.773438 17.550781 " fill-opacity="1" fill-rule="evenodd"/><path fill="#5e17eb" d="M 18.441406 18.175781 L 17.503906 18.175781 C 17.335938 18.175781 17.195312 18.035156 17.195312 17.863281 L 17.195312 13.699219 C 17.195312 13.53125 17.335938 13.390625 17.503906 13.390625 L 18.441406 13.390625 C 18.613281 13.390625 18.753906 13.53125 18.753906 13.699219 L 18.753906 17.863281 C 18.753906 18.035156 18.613281 18.175781 18.441406 18.175781 Z M 17.832031 17.550781 L 18.128906 17.550781 L 18.128906 14.011719 L 17.832031 14.011719 Z M 17.832031 17.550781 " fill-opacity="1" fill-rule="evenodd"/></svg>