<svg xmlns="http://www.w3.org/2000/svg" xmlns:xlink="http://www.w3.org/1999/xlink" width="40" zoomAndPan="magnify" viewBox="0 0 30 30.000001" height="40" preserveAspectRatio="xMidYMid meet" version="1.0"><defs><clipPath id="2c666f4083"><path d="M 1.886719 4.597656 L 28.742188 4.597656 L 28.742188 24.917969 L 1.886719 24.917969 Z M 1.886719 4.597656 " clip-rule="nonzero"/></clipPath></defs><g clip-path="url(#2c666f4083)"><path fill="#5e17eb" d="M 22.730469 8.410156 C 22.589844 8.203125 22.644531 7.921875 22.847656 7.777344 C 23.058594 7.636719 23.339844 7.691406 23.480469 7.898438 L 24.050781 8.734375 L 26.050781 6.734375 C 26.226562 6.558594 26.515625 6.558594 26.691406 6.734375 C 26.871094 6.914062 26.871094 7.203125 26.691406 7.378906 L 24.308594 9.765625 L 24.304688 9.765625 C 24.109375 9.960938 23.769531 9.933594 23.613281 9.699219 Z M 3.546875 21.246094 C 3.40625 21.039062 3.460938 20.757812 3.664062 20.617188 C 3.875 20.472656 4.15625 20.527344 4.296875 20.734375 L 4.867188 21.570312 L 6.867188 19.574219 C 7.042969 19.394531 7.332031 19.394531 7.507812 19.574219 C 7.6875 19.75 7.6875 20.039062 7.507812 20.21875 L 5.125 22.601562 L 5.121094 22.601562 C 4.925781 22.800781 4.585938 22.773438 4.429688 22.535156 Z M 3.449219 17.429688 L 7.660156 17.429688 C 8.515625 17.429688 9.210938 18.128906 9.210938 18.984375 L 9.210938 23.191406 C 9.210938 24.046875 8.515625 24.746094 7.660156 24.746094 L 3.449219 24.746094 C 2.597656 24.746094 1.898438 24.046875 1.898438 23.191406 L 1.898438 18.984375 C 1.898438 18.128906 2.597656 17.429688 3.449219 17.429688 Z M 7.660156 18.339844 L 3.449219 18.339844 C 3.097656 18.339844 2.808594 18.628906 2.808594 18.980469 L 2.808594 23.191406 C 2.808594 23.546875 3.097656 23.832031 3.449219 23.832031 L 7.660156 23.832031 C 8.011719 23.832031 8.300781 23.546875 8.300781 23.191406 L 8.300781 18.984375 C 8.300781 18.632812 8.011719 18.339844 7.660156 18.339844 Z M 22.632812 4.59375 L 26.84375 4.59375 C 27.699219 4.59375 28.394531 5.292969 28.394531 6.144531 L 28.394531 10.355469 C 28.394531 11.210938 27.699219 11.910156 26.84375 11.910156 L 22.632812 11.910156 C 21.78125 11.910156 21.082031 11.210938 21.082031 10.355469 L 21.082031 6.144531 C 21.082031 5.292969 21.78125 4.59375 22.632812 4.59375 Z M 26.84375 5.503906 L 22.632812 5.503906 C 22.28125 5.503906 21.992188 5.792969 21.992188 6.144531 L 21.992188 10.355469 C 21.992188 10.707031 22.28125 10.996094 22.632812 10.996094 L 26.84375 10.996094 C 27.195312 10.996094 27.484375 10.707031 27.484375 10.355469 L 27.484375 6.144531 C 27.484375 5.792969 27.195312 5.503906 26.84375 5.503906 Z M 5.554688 13.117188 L 5.878906 12.554688 L 6.203125 11.996094 L 4.910156 11.996094 Z M 6.664062 13.007812 L 5.960938 14.222656 C 5.777344 14.570312 5.332031 14.542969 5.164062 14.25 L 3.746094 11.792969 C 3.53125 11.457031 3.785156 11.085938 4.121094 11.085938 L 5.0625 11.085938 L 5.0625 7.765625 C 5.0625 6.242188 6.304688 5 7.832031 5 L 9.964844 5 C 10.214844 5 10.417969 5.203125 10.417969 5.453125 C 10.417969 5.703125 10.214844 5.90625 9.964844 5.90625 L 7.832031 5.90625 C 6.808594 5.90625 5.972656 6.746094 5.972656 7.765625 L 5.972656 11.085938 L 6.988281 11.085938 C 7.335938 11.085938 7.558594 11.460938 7.382812 11.765625 Z M 25.132812 15.234375 L 26.566406 17.714844 C 26.742188 18.023438 26.519531 18.398438 26.171875 18.398438 L 25.207031 18.398438 L 25.207031 22.375 C 25.207031 23.898438 23.960938 25.144531 22.4375 25.144531 L 20.980469 25.144531 C 20.730469 25.144531 20.527344 24.941406 20.527344 24.691406 C 20.527344 24.4375 20.730469 24.234375 20.980469 24.234375 L 22.4375 24.234375 C 23.457031 24.234375 24.296875 23.398438 24.296875 22.375 L 24.296875 18.402344 L 23.304688 18.402344 C 22.96875 18.402344 22.714844 18.027344 22.929688 17.691406 L 23.628906 16.476562 L 24.347656 15.238281 C 24.523438 14.929688 24.960938 14.9375 25.128906 15.234375 Z M 25.0625 16.929688 L 24.738281 16.367188 L 24.09375 17.488281 L 25.386719 17.488281 Z M 12.742188 5.90625 C 12.492188 5.90625 12.285156 5.703125 12.285156 5.453125 C 12.285156 5.203125 12.492188 5 12.742188 5 L 17.625 5 C 17.875 5 18.078125 5.203125 18.078125 5.453125 C 18.078125 5.703125 17.875 5.90625 17.625 5.90625 Z M 18.207031 24.234375 C 18.457031 24.234375 18.660156 24.4375 18.660156 24.691406 C 18.660156 24.941406 18.457031 25.144531 18.207031 25.144531 L 12.035156 25.144531 C 11.785156 25.144531 11.578125 24.941406 11.578125 24.691406 C 11.578125 24.4375 11.785156 24.234375 12.035156 24.234375 Z M 15.148438 11.535156 C 17.101562 11.535156 18.683594 13.117188 18.683594 15.070312 C 18.683594 17.023438 17.101562 18.609375 15.148438 18.609375 C 13.195312 18.609375 11.609375 17.023438 11.609375 15.070312 C 11.609375 13.117188 13.191406 11.535156 15.148438 11.535156 Z M 17.003906 13.214844 C 15.976562 12.1875 14.316406 12.1875 13.289062 13.214844 C 12.261719 14.238281 12.261719 15.902344 13.289062 16.929688 C 14.316406 17.953125 15.976562 17.953125 17.003906 16.929688 C 18.03125 15.902344 18.03125 14.238281 17.003906 13.214844 Z M 15.855469 10.171875 L 15.5625 9.398438 L 14.730469 9.398438 L 14.441406 10.171875 C 14.382812 10.324219 14.253906 10.425781 14.105469 10.457031 C 13.59375 10.566406 13.058594 10.796875 12.613281 11.078125 C 12.472656 11.167969 12.304688 11.171875 12.164062 11.101562 L 11.429688 10.765625 L 10.839844 11.355469 L 11.183594 12.109375 C 11.25 12.253906 11.234375 12.414062 11.15625 12.539062 C 10.996094 12.789062 10.886719 13 10.777344 13.261719 C 10.671875 13.515625 10.589844 13.773438 10.53125 14.039062 C 10.496094 14.195312 10.386719 14.3125 10.246094 14.363281 L 9.476562 14.65625 L 9.476562 15.488281 L 10.246094 15.777344 C 10.398438 15.835938 10.503906 15.964844 10.535156 16.113281 C 10.59375 16.375 10.675781 16.632812 10.777344 16.882812 C 10.882812 17.132812 11.007812 17.375 11.15625 17.605469 C 11.242188 17.746094 11.246094 17.914062 11.175781 18.054688 L 10.839844 18.789062 L 11.429688 19.375 L 12.183594 19.035156 C 12.328125 18.96875 12.488281 18.988281 12.613281 19.066406 C 13.074219 19.355469 13.582031 19.570312 14.113281 19.6875 C 14.269531 19.722656 14.386719 19.832031 14.441406 19.972656 L 14.730469 20.742188 L 15.5625 20.742188 L 15.851562 19.972656 C 15.910156 19.820312 16.039062 19.714844 16.1875 19.6875 C 16.703125 19.574219 17.230469 19.347656 17.679688 19.066406 C 17.820312 18.976562 17.988281 18.972656 18.128906 19.042969 L 18.863281 19.375 L 19.453125 18.789062 L 19.109375 18.035156 C 19.042969 17.890625 19.0625 17.730469 19.140625 17.605469 C 19.429688 17.148438 19.644531 16.632812 19.761719 16.105469 C 19.796875 15.949219 19.90625 15.832031 20.046875 15.777344 L 20.820312 15.488281 L 20.820312 14.65625 L 20.046875 14.367188 C 19.894531 14.308594 19.789062 14.179688 19.761719 14.03125 C 19.648438 13.515625 19.421875 12.984375 19.140625 12.539062 C 19.050781 12.398438 19.046875 12.226562 19.117188 12.089844 L 19.453125 11.355469 L 18.863281 10.765625 L 18.109375 11.109375 C 17.964844 11.171875 17.804688 11.15625 17.679688 11.078125 C 17.21875 10.789062 16.710938 10.574219 16.179688 10.457031 C 16.023438 10.421875 15.90625 10.3125 15.855469 10.171875 Z M 16.300781 8.785156 L 16.617188 9.628906 C 17.089844 9.757812 17.535156 9.941406 17.953125 10.179688 L 18.75 9.820312 C 18.921875 9.726562 19.140625 9.757812 19.285156 9.902344 L 20.316406 10.933594 C 20.445312 11.0625 20.488281 11.265625 20.410156 11.441406 L 20.035156 12.265625 C 20.273438 12.683594 20.460938 13.132812 20.585938 13.597656 L 21.394531 13.902344 C 21.585938 13.957031 21.726562 14.132812 21.726562 14.339844 L 21.726562 15.800781 C 21.726562 15.984375 21.613281 16.160156 21.429688 16.226562 L 20.585938 16.542969 C 20.460938 17.015625 20.273438 17.460938 20.035156 17.878906 L 20.398438 18.675781 C 20.488281 18.84375 20.460938 19.0625 20.316406 19.207031 L 19.285156 20.242188 C 19.152344 20.371094 18.953125 20.414062 18.777344 20.335938 L 17.953125 19.960938 C 17.535156 20.199219 17.085938 20.386719 16.617188 20.511719 L 16.316406 21.316406 C 16.261719 21.511719 16.085938 21.652344 15.875 21.652344 L 14.417969 21.652344 L 14.417969 21.648438 C 14.234375 21.648438 14.0625 21.539062 13.992188 21.355469 L 13.675781 20.511719 C 13.207031 20.386719 12.757812 20.199219 12.339844 19.960938 L 11.542969 20.320312 C 11.371094 20.414062 11.15625 20.386719 11.007812 20.242188 L 9.976562 19.207031 C 9.847656 19.078125 9.804688 18.875 9.886719 18.699219 L 10.257812 17.878906 C 10.140625 17.667969 10.035156 17.453125 9.941406 17.226562 C 9.851562 17.023438 9.765625 16.761719 9.707031 16.542969 L 8.902344 16.238281 C 8.707031 16.1875 8.566406 16.007812 8.566406 15.800781 L 8.566406 14.339844 L 8.570312 14.339844 C 8.570312 14.15625 8.679688 13.984375 8.863281 13.914062 L 9.707031 13.597656 C 9.769531 13.359375 9.847656 13.132812 9.941406 12.914062 C 10.035156 12.6875 10.140625 12.46875 10.257812 12.261719 L 9.898438 11.46875 C 9.804688 11.296875 9.832031 11.078125 9.976562 10.933594 L 11.011719 9.902344 C 11.140625 9.773438 11.34375 9.726562 11.519531 9.808594 L 12.339844 10.179688 C 12.757812 9.941406 13.207031 9.757812 13.675781 9.628906 L 13.980469 8.824219 C 14.03125 8.632812 14.207031 8.488281 14.417969 8.488281 L 15.878906 8.488281 L 15.878906 8.492188 C 16.058594 8.492188 16.234375 8.605469 16.300781 8.785156 Z M 16.300781 8.785156 " fill-opacity="1" fill-rule="nonzero"/></g></svg>