<svg xmlns="http://www.w3.org/2000/svg" xmlns:xlink="http://www.w3.org/1999/xlink" width="40" zoomAndPan="magnify" viewBox="0 0 30 30.000001" height="40" preserveAspectRatio="xMidYMid meet" version="1.0"><defs><clipPath id="01d0d63e4c"><path d="M 1.210938 2 L 24 2 L 24 28.304688 L 1.210938 28.304688 Z M 1.210938 2 " clip-rule="nonzero"/></clipPath><clipPath id="7ffb00730c"><path d="M 24 3 L 28.789062 3 L 28.789062 7 L 24 7 Z M 24 3 " clip-rule="nonzero"/></clipPath><clipPath id="de435cfd94"><path d="M 20 0.726562 L 25 0.726562 L 25 5 L 20 5 Z M 20 0.726562 " clip-rule="nonzero"/></clipPath></defs><g clip-path="url(#01d0d63e4c)"><path fill="#5e17eb" d="M 8.542969 22.347656 C 8.125 22.347656 7.753906 22.351562 7.386719 22.347656 C 5.375 22.339844 3.894531 20.898438 3.847656 18.902344 C 3.828125 18.03125 3.824219 18.03125 2.976562 17.773438 C 2.523438 17.632812 2.070312 17.496094 1.621094 17.347656 C 1.183594 17.199219 1.105469 17.007812 1.34375 16.605469 C 2.101562 15.304688 2.878906 14.015625 3.625 12.707031 C 3.765625 12.457031 3.839844 12.1875 3.855469 11.902344 C 4.019531 7.542969 7.472656 3.539062 11.78125 2.808594 C 12.734375 2.644531 13.71875 2.683594 14.691406 2.644531 C 15.101562 2.625 15.273438 2.828125 15.265625 3.253906 C 15.246094 4.332031 15.257812 5.410156 15.257812 6.484375 C 15.257812 6.640625 15.257812 6.796875 15.257812 7.003906 C 16 7.003906 16.699219 7.003906 17.398438 7.003906 C 18.039062 7.003906 18.09375 7.058594 18.09375 7.683594 C 18.097656 8.671875 18.09375 9.660156 18.09375 10.707031 C 18.546875 10.707031 18.957031 10.71875 19.367188 10.703125 C 19.761719 10.6875 19.914062 10.871094 19.910156 11.246094 C 19.902344 11.917969 19.90625 12.589844 19.90625 13.324219 L 20.398438 13.324219 C 21.246094 13.324219 22.089844 13.316406 22.9375 13.324219 C 23.378906 13.328125 23.554688 13.511719 23.488281 13.886719 C 22.882812 17.410156 20.976562 19.953125 17.738281 21.476562 C 17.488281 21.597656 17.40625 21.726562 17.410156 21.992188 C 17.417969 23.886719 17.414062 25.78125 17.414062 27.679688 C 17.414062 28.238281 17.347656 28.304688 16.796875 28.304688 C 14.253906 28.304688 11.714844 28.304688 9.171875 28.304688 C 8.640625 28.304688 8.546875 28.210938 8.542969 27.679688 C 8.542969 25.929688 8.542969 24.175781 8.542969 22.347656 Z M 2.15625 16.71875 C 2.847656 16.9375 3.472656 17.148438 4.105469 17.328125 C 4.445312 17.425781 4.621094 17.589844 4.589844 17.964844 C 4.566406 18.28125 4.578125 18.597656 4.589844 18.914062 C 4.625 20.21875 5.457031 21.269531 6.742188 21.503906 C 7.371094 21.617188 8.027344 21.570312 8.671875 21.585938 C 9.234375 21.597656 9.308594 21.667969 9.308594 22.242188 C 9.3125 23.464844 9.3125 24.683594 9.308594 25.902344 L 9.308594 27.507812 L 16.65625 27.507812 L 16.65625 27.027344 C 16.65625 25.246094 16.667969 23.46875 16.648438 21.6875 C 16.644531 21.261719 16.792969 21.050781 17.1875 20.886719 C 19.4375 19.957031 21.066406 18.363281 22.050781 16.140625 C 22.332031 15.507812 22.503906 14.824219 22.75 14.09375 C 22.007812 14.09375 21.378906 14.082031 20.753906 14.105469 C 20.65625 14.109375 20.5625 14.273438 20.476562 14.375 C 20.019531 14.917969 19.609375 15.515625 19.089844 15.992188 C 18.578125 16.464844 17.957031 16.820312 17.375 17.214844 C 16.816406 17.589844 16.234375 17.515625 15.886719 17.039062 C 15.53125 16.558594 15.625 15.984375 16.148438 15.566406 C 16.597656 15.210938 17.0625 14.871094 17.515625 14.519531 C 17.628906 14.429688 17.730469 14.324219 17.839844 14.226562 C 17.632812 14.109375 17.46875 14.09375 17.304688 14.09375 C 14.535156 14.089844 11.765625 14.097656 8.992188 14.089844 C 7.867188 14.085938 6.925781 13.417969 6.589844 12.402344 C 6.238281 11.335938 6.59375 10.292969 7.519531 9.582031 C 7.652344 9.476562 7.742188 9.234375 7.746094 9.054688 C 7.773438 7.75 8.582031 6.558594 9.8125 6.164062 C 10.308594 6.007812 10.875 6.082031 11.367188 5.925781 C 11.859375 5.765625 12.277344 5.363281 12.773438 5.222656 C 13.308594 5.074219 13.890625 5.101562 14.472656 5.046875 L 14.472656 3.417969 C 13.800781 3.417969 13.152344 3.34375 12.519531 3.429688 C 8.078125 4.035156 4.785156 7.683594 4.582031 12.164062 C 4.570312 12.449219 4.46875 12.753906 4.328125 13 C 3.628906 14.234375 2.902344 15.453125 2.15625 16.71875 Z M 17.335938 7.765625 C 16.546875 7.765625 15.816406 7.769531 15.089844 7.761719 C 14.621094 7.757812 14.511719 7.640625 14.503906 7.171875 C 14.496094 6.882812 14.476562 6.59375 14.507812 6.308594 C 14.539062 5.984375 14.386719 5.882812 14.097656 5.847656 C 13.433594 5.765625 12.816406 5.898438 12.246094 6.25 C 11.792969 6.53125 11.707031 6.746094 11.832031 7.253906 C 11.941406 7.6875 12.269531 7.953125 12.734375 7.96875 C 12.976562 7.976562 13.234375 7.929688 13.460938 7.988281 C 13.621094 8.027344 13.742188 8.207031 13.878906 8.328125 C 13.742188 8.460938 13.625 8.664062 13.464844 8.710938 C 13.238281 8.777344 12.980469 8.738281 12.738281 8.730469 C 11.800781 8.699219 11.152344 8.089844 11.054688 7.15625 C 11.042969 7.03125 11.035156 6.90625 11.027344 6.789062 C 9.640625 6.550781 8.386719 7.824219 8.542969 9.320312 C 8.585938 9.726562 8.503906 9.945312 8.125 10.128906 C 7.464844 10.453125 7.140625 11.128906 7.238281 11.84375 C 7.324219 12.503906 7.84375 13.195312 8.507812 13.253906 C 9.480469 13.339844 10.472656 13.277344 11.453125 13.277344 C 11.574219 12.019531 11.132812 11.507812 9.886719 11.445312 C 9.832031 11.445312 9.75 11.460938 9.71875 11.433594 C 9.601562 11.316406 9.429688 11.191406 9.410156 11.050781 C 9.398438 10.953125 9.589844 10.753906 9.714844 10.726562 C 11.011719 10.457031 12.210938 11.429688 12.238281 12.753906 C 12.242188 12.933594 12.238281 13.117188 12.238281 13.300781 C 12.386719 13.3125 12.472656 13.320312 12.558594 13.320312 C 14.238281 13.324219 15.917969 13.320312 17.59375 13.324219 C 18.089844 13.328125 18.402344 13.542969 18.523438 13.941406 C 18.660156 14.382812 18.519531 14.722656 18.152344 14.992188 C 17.65625 15.355469 17.160156 15.722656 16.6875 16.117188 C 16.574219 16.210938 16.558594 16.417969 16.496094 16.570312 C 16.660156 16.570312 16.863281 16.632812 16.980469 16.558594 C 17.578125 16.167969 18.183594 15.773438 18.734375 15.320312 C 19.125 15 19.433594 14.585938 19.777344 14.210938 L 19.75 14.105469 C 19.179688 14.140625 19.117188 13.808594 19.128906 13.386719 C 19.144531 12.757812 19.132812 12.128906 19.132812 11.445312 C 18.722656 11.445312 18.355469 11.449219 17.984375 11.445312 C 17.402344 11.441406 17.335938 11.378906 17.335938 10.804688 C 17.335938 9.816406 17.335938 8.828125 17.335938 7.765625 Z M 17.335938 7.765625 " fill-opacity="1" fill-rule="nonzero"/></g><path fill="#5e17eb" d="M 24.921875 8.113281 C 25.464844 8.113281 26.011719 8.125 26.558594 8.109375 C 26.949219 8.097656 27.097656 8.273438 27.09375 8.652344 C 27.085938 9.742188 27.085938 10.832031 27.09375 11.925781 C 27.09375 12.28125 26.945312 12.453125 26.578125 12.449219 C 25.472656 12.441406 24.367188 12.441406 23.261719 12.449219 C 22.894531 12.449219 22.746094 12.28125 22.746094 11.921875 C 22.753906 10.816406 22.753906 9.710938 22.746094 8.605469 C 22.746094 8.261719 22.898438 8.109375 23.242188 8.113281 C 23.800781 8.121094 24.363281 8.113281 24.921875 8.113281 Z M 23.542969 8.875 L 23.542969 11.660156 L 26.308594 11.660156 L 26.308594 8.875 Z M 23.542969 8.875 " fill-opacity="1" fill-rule="nonzero"/><g clip-path="url(#7ffb00730c)"><path fill="#5e17eb" d="M 28.785156 4.941406 C 28.785156 5.414062 28.773438 5.886719 28.785156 6.359375 C 28.796875 6.71875 28.648438 6.902344 28.285156 6.902344 C 27.324219 6.902344 26.363281 6.902344 25.402344 6.902344 C 25.070312 6.902344 24.910156 6.734375 24.910156 6.394531 C 24.914062 5.445312 24.914062 4.5 24.910156 3.554688 C 24.90625 3.1875 25.070312 3.035156 25.433594 3.039062 C 26.382812 3.050781 27.328125 3.050781 28.273438 3.042969 C 28.640625 3.039062 28.796875 3.199219 28.785156 3.5625 C 28.773438 4.023438 28.785156 4.480469 28.785156 4.941406 Z M 27.992188 3.824219 L 25.707031 3.824219 L 25.707031 6.109375 L 27.992188 6.109375 Z M 27.992188 3.824219 " fill-opacity="1" fill-rule="nonzero"/></g><g clip-path="url(#de435cfd94)"><path fill="#5e17eb" d="M 22.398438 0.726562 C 22.84375 0.726562 23.289062 0.738281 23.734375 0.726562 C 24.089844 0.71875 24.265625 0.871094 24.265625 1.234375 C 24.261719 2.152344 24.261719 3.070312 24.265625 3.984375 C 24.269531 4.339844 24.113281 4.519531 23.75 4.515625 C 22.832031 4.515625 21.914062 4.515625 20.996094 4.515625 C 20.667969 4.515625 20.496094 4.375 20.5 4.023438 C 20.507812 3.09375 20.507812 2.160156 20.496094 1.230469 C 20.492188 0.851562 20.667969 0.71875 21.023438 0.726562 C 21.480469 0.738281 21.941406 0.726562 22.398438 0.726562 Z M 23.507812 1.535156 L 21.273438 1.535156 L 21.273438 3.710938 L 23.507812 3.710938 Z M 23.507812 1.535156 " fill-opacity="1" fill-rule="nonzero"/></g><path fill="#5e17eb" d="M 17.984375 5.820312 C 17.582031 5.820312 17.179688 5.820312 16.78125 5.820312 C 16.5 5.820312 16.355469 5.679688 16.355469 5.402344 C 16.351562 4.554688 16.355469 3.710938 16.351562 2.863281 C 16.351562 2.554688 16.515625 2.429688 16.808594 2.429688 C 17.628906 2.433594 18.445312 2.433594 19.261719 2.429688 C 19.609375 2.429688 19.742188 2.605469 19.742188 2.9375 C 19.734375 3.726562 19.734375 4.515625 19.742188 5.304688 C 19.746094 5.660156 19.597656 5.835938 19.230469 5.824219 C 18.816406 5.8125 18.398438 5.824219 17.984375 5.820312 Z M 18.953125 3.191406 C 18.378906 3.191406 17.851562 3.183594 17.324219 3.199219 C 17.246094 3.199219 17.101562 3.3125 17.101562 3.378906 C 17.082031 3.929688 17.089844 4.480469 17.089844 5.03125 L 18.953125 5.03125 Z M 18.953125 3.191406 " fill-opacity="1" fill-rule="nonzero"/><path fill="#5e17eb" d="M 22.136719 8.292969 C 22.136719 8.664062 22.140625 9.039062 22.136719 9.410156 C 22.132812 9.707031 21.980469 9.859375 21.679688 9.859375 C 20.933594 9.859375 20.1875 9.859375 19.441406 9.859375 C 19.140625 9.859375 18.980469 9.699219 18.972656 9.414062 C 18.964844 8.667969 18.964844 7.921875 18.972656 7.175781 C 18.976562 6.863281 19.148438 6.699219 19.460938 6.695312 C 20.191406 6.691406 20.921875 6.691406 21.65625 6.695312 C 21.996094 6.699219 22.144531 6.882812 22.140625 7.214844 C 22.132812 7.574219 22.136719 7.933594 22.136719 8.292969 Z M 19.773438 7.472656 L 19.773438 9.074219 L 21.347656 9.074219 L 21.347656 7.472656 Z M 19.773438 7.472656 " fill-opacity="1" fill-rule="nonzero"/><path fill="#5e17eb" d="M 16.6875 12.511719 C 16.386719 12.511719 16.082031 12.53125 15.785156 12.511719 C 15.109375 12.464844 14.746094 12.082031 14.714844 11.410156 C 14.6875 10.820312 14.679688 10.808594 14.101562 10.804688 C 13.855469 10.804688 13.601562 10.847656 13.375 10.789062 C 13.214844 10.746094 13.097656 10.554688 12.960938 10.433594 C 13.101562 10.300781 13.226562 10.078125 13.382812 10.050781 C 13.75 9.996094 14.128906 10.011719 14.5 10.042969 C 15.085938 10.09375 15.433594 10.511719 15.464844 11.160156 C 15.492188 11.746094 15.492188 11.746094 16.089844 11.75 C 16.589844 11.75 17.09375 11.75 17.59375 11.746094 C 17.851562 11.746094 18.070312 11.816406 18.082031 12.105469 C 18.09375 12.429688 17.851562 12.507812 17.589844 12.515625 C 17.289062 12.523438 16.988281 12.515625 16.6875 12.515625 Z M 16.6875 12.511719 " fill-opacity="1" fill-rule="nonzero"/></svg>