<svg xmlns="http://www.w3.org/2000/svg" xmlns:xlink="http://www.w3.org/1999/xlink" width="40" zoomAndPan="magnify" viewBox="0 0 30 30.000001" height="40" preserveAspectRatio="xMidYMid meet" version="1.0"><defs><clipPath id="186b4f37a1"><path d="M 2.863281 1.230469 L 26.816406 1.230469 L 26.816406 28 L 2.863281 28 Z M 2.863281 1.230469 " clip-rule="nonzero"/></clipPath></defs><g clip-path="url(#186b4f37a1)"><path fill="#5e17eb" d="M 26.613281 24.066406 L 26.613281 12.527344 C 26.613281 12.089844 26.257812 11.734375 25.824219 11.734375 L 24.707031 11.734375 L 24.707031 10.910156 C 24.707031 10.679688 24.613281 10.453125 24.445312 10.292969 C 24.277344 10.132812 24.046875 10.042969 23.824219 10.054688 L 17.675781 10.289062 C 17.847656 9.957031 18.074219 9.640625 18.363281 9.34375 C 19.238281 8.453125 19.722656 7.28125 19.734375 6.039062 C 19.746094 4.769531 19.265625 3.566406 18.375 2.660156 C 17.484375 1.75 16.292969 1.242188 15.023438 1.230469 C 15.007812 1.230469 14.992188 1.230469 14.976562 1.230469 C 12.371094 1.230469 10.242188 3.335938 10.21875 5.945312 C 10.207031 7.1875 10.667969 8.367188 11.519531 9.269531 C 11.8125 9.578125 12.042969 9.921875 12.210938 10.285156 L 6.128906 10.054688 C 5.894531 10.046875 5.675781 10.128906 5.507812 10.292969 C 5.339844 10.453125 5.246094 10.675781 5.246094 10.910156 L 5.246094 11.734375 L 4.167969 11.734375 C 3.730469 11.734375 3.375 12.089844 3.375 12.527344 L 3.375 24.066406 C 3.375 24.507812 3.730469 24.863281 4.191406 24.863281 L 14.011719 24.183594 C 14.652344 24.140625 15.304688 24.140625 15.953125 24.183594 L 25.820312 24.863281 C 26.257812 24.863281 26.613281 24.507812 26.613281 24.066406 Z M 14.992188 7.085938 C 14.757812 7.085938 14.566406 6.894531 14.566406 6.660156 C 14.566406 6.429688 14.757812 6.238281 14.992188 6.238281 C 15.222656 6.238281 15.414062 6.429688 15.414062 6.660156 C 15.414062 6.894531 15.222656 7.085938 14.992188 7.085938 Z M 15.996094 13.753906 L 14.925781 13.746094 L 13.824219 13.734375 C 13.6875 13.734375 13.566406 13.683594 13.476562 13.59375 C 13.390625 13.511719 13.34375 13.402344 13.34375 13.285156 L 13.351562 12.398438 L 14.609375 12.414062 L 16.472656 12.425781 L 16.464844 13.316406 C 16.460938 13.554688 16.257812 13.742188 15.996094 13.753906 Z M 14.078125 14.460938 L 15.703125 14.480469 L 15.699219 14.707031 C 15.695312 15.085938 15.363281 15.402344 14.960938 15.421875 L 14.835938 15.421875 C 14.628906 15.417969 14.433594 15.339844 14.289062 15.199219 C 14.148438 15.0625 14.074219 14.882812 14.074219 14.691406 Z M 23.851562 10.78125 C 23.894531 10.777344 23.925781 10.800781 23.941406 10.816406 C 23.957031 10.832031 23.984375 10.863281 23.984375 10.910156 L 23.984375 22.390625 C 23.984375 22.4375 23.960938 22.46875 23.945312 22.484375 C 23.929688 22.5 23.894531 22.511719 23.875 22.519531 L 21.882812 22.390625 L 15.335938 21.96875 L 15.335938 16.09375 C 15.394531 16.078125 15.449219 16.054688 15.503906 16.03125 C 15.519531 16.027344 15.539062 16.023438 15.554688 16.015625 C 15.632812 15.980469 15.710938 15.9375 15.78125 15.890625 C 15.800781 15.875 15.816406 15.859375 15.835938 15.84375 C 15.886719 15.808594 15.933594 15.769531 15.980469 15.726562 C 16.003906 15.707031 16.023438 15.683594 16.042969 15.660156 C 16.082031 15.621094 16.113281 15.578125 16.148438 15.535156 C 16.167969 15.507812 16.183594 15.480469 16.203125 15.453125 C 16.230469 15.40625 16.257812 15.363281 16.28125 15.3125 C 16.292969 15.285156 16.308594 15.253906 16.320312 15.226562 C 16.34375 15.171875 16.359375 15.117188 16.375 15.058594 C 16.382812 15.03125 16.390625 15.003906 16.394531 14.976562 C 16.414062 14.890625 16.425781 14.804688 16.425781 14.714844 L 16.429688 14.398438 C 16.433594 14.398438 16.433594 14.394531 16.4375 14.394531 C 16.535156 14.355469 16.625 14.304688 16.707031 14.242188 C 16.726562 14.230469 16.742188 14.214844 16.761719 14.199219 C 16.835938 14.140625 16.902344 14.070312 16.960938 13.996094 C 16.964844 13.988281 16.972656 13.984375 16.976562 13.976562 C 17.035156 13.894531 17.078125 13.804688 17.113281 13.707031 C 17.121094 13.683594 17.128906 13.660156 17.136719 13.636719 C 17.167969 13.539062 17.1875 13.433594 17.191406 13.324219 L 17.199219 12.066406 C 17.214844 12.046875 17.21875 12.019531 17.230469 12 C 17.242188 11.976562 17.25 11.957031 17.261719 11.933594 C 17.292969 11.851562 17.316406 11.761719 17.316406 11.664062 C 17.320312 11.53125 17.335938 11.398438 17.355469 11.265625 C 17.359375 11.230469 17.367188 11.191406 17.375 11.15625 C 17.382812 11.113281 17.394531 11.070312 17.402344 11.027344 Z M 12.042969 8.769531 C 11.324219 8.003906 10.933594 7.003906 10.945312 5.949219 C 10.964844 3.738281 12.769531 1.957031 14.976562 1.957031 C 14.988281 1.957031 15.003906 1.957031 15.015625 1.957031 C 16.09375 1.964844 17.101562 2.394531 17.855469 3.167969 C 18.609375 3.9375 19.019531 4.953125 19.007812 6.035156 C 19 7.085938 18.585938 8.078125 17.847656 8.835938 C 17.402344 9.285156 17.078125 9.785156 16.867188 10.320312 L 16.847656 10.324219 L 16.769531 10.566406 C 16.660156 10.917969 16.597656 11.28125 16.59375 11.65625 L 16.957031 11.667969 L 16.550781 11.703125 L 15.335938 11.691406 L 15.335938 7.785156 C 15.335938 7.773438 15.332031 7.765625 15.332031 7.753906 C 15.796875 7.609375 16.140625 7.175781 16.140625 6.660156 C 16.140625 6.027344 15.625 5.511719 14.992188 5.511719 C 14.355469 5.511719 13.839844 6.027344 13.839844 6.660156 C 13.839844 7.164062 14.167969 7.589844 14.617188 7.746094 C 14.617188 7.757812 14.609375 7.769531 14.609375 7.785156 L 14.609375 11.683594 L 13.285156 11.667969 L 13.25 11.613281 C 13.25 11.246094 13.195312 10.890625 13.097656 10.570312 C 13.09375 10.570312 13.09375 10.566406 13.09375 10.566406 C 13.09375 10.566406 13.09375 10.5625 13.09375 10.5625 L 13.015625 10.316406 L 13.003906 10.316406 C 12.804688 9.757812 12.480469 9.226562 12.042969 8.769531 Z M 5.96875 10.910156 C 5.96875 10.859375 5.996094 10.828125 6.007812 10.816406 C 6.027344 10.800781 6.054688 10.78125 6.09375 10.78125 C 6.097656 10.78125 6.097656 10.78125 6.101562 10.78125 L 12.457031 11.023438 C 12.460938 11.042969 12.464844 11.0625 12.46875 11.085938 C 12.5 11.257812 12.523438 11.433594 12.523438 11.621094 C 12.519531 11.710938 12.539062 11.800781 12.570312 11.882812 C 12.578125 11.90625 12.585938 11.929688 12.597656 11.949219 C 12.609375 11.976562 12.613281 12.003906 12.628906 12.027344 L 12.617188 13.277344 C 12.613281 13.59375 12.738281 13.890625 12.96875 14.113281 C 13.023438 14.167969 13.085938 14.21875 13.148438 14.261719 C 13.171875 14.273438 13.195312 14.285156 13.21875 14.296875 C 13.261719 14.320312 13.304688 14.347656 13.351562 14.367188 L 13.347656 14.683594 C 13.34375 15.074219 13.5 15.441406 13.78125 15.71875 C 13.847656 15.78125 13.917969 15.835938 13.992188 15.882812 C 14.011719 15.898438 14.039062 15.914062 14.0625 15.925781 C 14.113281 15.957031 14.167969 15.988281 14.222656 16.011719 C 14.253906 16.023438 14.28125 16.035156 14.3125 16.046875 C 14.367188 16.066406 14.425781 16.085938 14.484375 16.097656 C 14.511719 16.105469 14.542969 16.113281 14.570312 16.117188 C 14.585938 16.121094 14.597656 16.125 14.609375 16.128906 L 14.609375 21.96875 L 6.101562 22.519531 C 6.0625 22.511719 6.03125 22.5 6.015625 22.484375 C 6.007812 22.480469 6.003906 22.46875 5.996094 22.460938 C 5.992188 22.449219 5.988281 22.441406 5.984375 22.429688 C 5.980469 22.417969 5.976562 22.40625 5.976562 22.390625 L 5.976562 11.734375 L 5.96875 11.734375 Z M 25.886719 24.066406 C 25.886719 24.109375 25.859375 24.140625 25.84375 24.140625 L 16.003906 23.457031 C 15.664062 23.4375 15.320312 23.425781 14.980469 23.425781 C 14.640625 23.425781 14.296875 23.4375 13.960938 23.457031 L 4.167969 24.140625 C 4.128906 24.140625 4.101562 24.109375 4.101562 24.066406 L 4.101562 12.527344 C 4.101562 12.488281 4.128906 12.460938 4.167969 12.460938 L 5.246094 12.460938 L 5.246094 22.390625 C 5.246094 22.628906 5.335938 22.84375 5.5 23.007812 C 5.515625 23.023438 5.539062 23.027344 5.554688 23.042969 C 5.617188 23.097656 5.683594 23.140625 5.753906 23.175781 C 5.761719 23.175781 5.769531 23.183594 5.777344 23.183594 C 5.871094 23.226562 5.976562 23.246094 6.089844 23.242188 C 6.09375 23.242188 6.097656 23.246094 6.101562 23.246094 C 6.105469 23.246094 6.113281 23.246094 6.121094 23.246094 L 6.125 23.246094 C 6.125 23.246094 6.128906 23.246094 6.132812 23.246094 L 8.664062 23.082031 L 14.972656 22.671875 L 23.839844 23.246094 C 23.847656 23.246094 23.851562 23.246094 23.859375 23.246094 C 23.875 23.246094 23.890625 23.242188 23.90625 23.242188 C 24.117188 23.234375 24.3125 23.148438 24.460938 23.003906 C 24.628906 22.839844 24.71875 22.621094 24.71875 22.390625 L 24.71875 12.460938 L 25.824219 12.460938 C 25.859375 12.460938 25.886719 12.492188 25.886719 12.527344 Z M 6.617188 12.273438 C 6.617188 12.070312 6.78125 11.910156 6.980469 11.910156 L 11.71875 11.910156 C 11.917969 11.910156 12.082031 12.070312 12.082031 12.273438 C 12.082031 12.472656 11.917969 12.632812 11.71875 12.632812 L 6.980469 12.632812 C 6.78125 12.632812 6.617188 12.472656 6.617188 12.273438 Z M 6.617188 14.058594 C 6.617188 13.859375 6.78125 13.695312 6.980469 13.695312 L 11.71875 13.695312 C 11.917969 13.695312 12.082031 13.859375 12.082031 14.058594 C 12.082031 14.257812 11.917969 14.421875 11.71875 14.421875 L 6.980469 14.421875 C 6.78125 14.421875 6.617188 14.257812 6.617188 14.058594 Z M 6.617188 15.871094 C 6.617188 15.671875 6.78125 15.507812 6.980469 15.507812 L 11.71875 15.507812 C 11.917969 15.507812 12.082031 15.671875 12.082031 15.871094 C 12.082031 16.074219 11.917969 16.234375 11.71875 16.234375 L 6.980469 16.234375 C 6.78125 16.234375 6.617188 16.074219 6.617188 15.871094 Z M 6.617188 17.660156 C 6.617188 17.457031 6.78125 17.296875 6.980469 17.296875 L 11.71875 17.296875 C 11.917969 17.296875 12.082031 17.457031 12.082031 17.660156 C 12.082031 17.859375 11.917969 18.019531 11.71875 18.019531 L 6.980469 18.019531 C 6.78125 18.019531 6.617188 17.859375 6.617188 17.660156 Z M 6.617188 19.359375 C 6.617188 19.160156 6.78125 19 6.980469 19 L 11.71875 19 C 11.917969 19 12.082031 19.160156 12.082031 19.359375 C 12.082031 19.5625 11.917969 19.722656 11.71875 19.722656 L 6.980469 19.722656 C 6.78125 19.722656 6.617188 19.5625 6.617188 19.359375 Z M 6.617188 21.035156 C 6.617188 20.835938 6.78125 20.671875 6.980469 20.671875 L 9.351562 20.671875 C 9.554688 20.671875 9.714844 20.835938 9.714844 21.035156 C 9.714844 21.234375 9.554688 21.398438 9.351562 21.398438 L 6.980469 21.398438 C 6.78125 21.398438 6.617188 21.234375 6.617188 21.035156 Z M 17.753906 12.273438 C 17.753906 12.070312 17.914062 11.910156 18.117188 11.910156 L 22.855469 11.910156 C 23.054688 11.910156 23.21875 12.070312 23.21875 12.273438 C 23.21875 12.472656 23.054688 12.632812 22.855469 12.632812 L 18.117188 12.632812 C 17.914062 12.632812 17.753906 12.472656 17.753906 12.273438 Z M 17.753906 14.058594 C 17.753906 13.859375 17.914062 13.695312 18.117188 13.695312 L 22.855469 13.695312 C 23.054688 13.695312 23.21875 13.859375 23.21875 14.058594 C 23.21875 14.257812 23.054688 14.421875 22.855469 14.421875 L 18.117188 14.421875 C 17.914062 14.421875 17.753906 14.257812 17.753906 14.058594 Z M 17.753906 15.871094 C 17.753906 15.671875 17.914062 15.507812 18.117188 15.507812 L 22.855469 15.507812 C 23.054688 15.507812 23.21875 15.671875 23.21875 15.871094 C 23.21875 16.074219 23.054688 16.234375 22.855469 16.234375 L 18.117188 16.234375 C 17.914062 16.234375 17.753906 16.074219 17.753906 15.871094 Z M 17.753906 17.660156 C 17.753906 17.457031 17.914062 17.296875 18.117188 17.296875 L 22.855469 17.296875 C 23.054688 17.296875 23.21875 17.457031 23.21875 17.660156 C 23.21875 17.859375 23.054688 18.019531 22.855469 18.019531 L 18.117188 18.019531 C 17.914062 18.019531 17.753906 17.859375 17.753906 17.660156 Z M 23.21875 19.359375 C 23.21875 19.5625 23.054688 19.722656 22.855469 19.722656 L 18.117188 19.722656 C 17.914062 19.722656 17.753906 19.5625 17.753906 19.359375 C 17.753906 19.160156 17.914062 19 18.117188 19 L 22.855469 19 C 23.054688 19 23.21875 19.160156 23.21875 19.359375 Z M 23.21875 21.035156 C 23.21875 21.234375 23.054688 21.398438 22.855469 21.398438 L 20.488281 21.398438 C 20.289062 21.398438 20.125 21.234375 20.125 21.035156 C 20.125 20.835938 20.289062 20.671875 20.488281 20.671875 L 22.855469 20.671875 C 23.054688 20.671875 23.21875 20.835938 23.21875 21.035156 Z M 4.78125 7.5 L 4.78125 8.324219 L 5.605469 8.324219 C 5.808594 8.324219 5.96875 8.488281 5.96875 8.6875 C 5.96875 8.886719 5.808594 9.050781 5.605469 9.050781 L 4.78125 9.050781 L 4.78125 9.878906 C 4.78125 10.078125 4.617188 10.238281 4.417969 10.238281 C 4.21875 10.238281 4.054688 10.078125 4.054688 9.878906 L 4.054688 9.050781 L 3.230469 9.050781 C 3.027344 9.050781 2.867188 8.886719 2.867188 8.6875 C 2.867188 8.488281 3.027344 8.324219 3.230469 8.324219 L 4.054688 8.324219 L 4.054688 7.5 C 4.054688 7.300781 4.21875 7.136719 4.417969 7.136719 C 4.617188 7.136719 4.78125 7.300781 4.78125 7.5 Z M 15.335938 25.058594 L 15.335938 25.886719 L 16.164062 25.886719 C 16.363281 25.886719 16.523438 26.046875 16.523438 26.25 C 16.523438 26.449219 16.363281 26.613281 16.164062 26.613281 L 15.335938 26.613281 L 15.335938 27.4375 C 15.335938 27.636719 15.175781 27.800781 14.972656 27.800781 C 14.773438 27.800781 14.609375 27.636719 14.609375 27.4375 L 14.609375 26.613281 L 13.789062 26.613281 C 13.589844 26.613281 13.425781 26.449219 13.425781 26.25 C 13.425781 26.046875 13.589844 25.886719 13.789062 25.886719 L 14.609375 25.886719 L 14.609375 25.058594 C 14.609375 24.859375 14.773438 24.699219 14.972656 24.699219 C 15.175781 24.699219 15.335938 24.859375 15.335938 25.058594 Z M 22.859375 5.054688 L 22.859375 5.964844 C 22.859375 6.164062 22.699219 6.328125 22.5 6.328125 C 22.296875 6.328125 22.136719 6.164062 22.136719 5.964844 L 22.136719 5.054688 C 22.136719 4.855469 22.296875 4.691406 22.5 4.691406 C 22.699219 4.691406 22.859375 4.855469 22.859375 5.054688 Z M 22.859375 7.359375 L 22.859375 8.273438 C 22.859375 8.476562 22.699219 8.636719 22.5 8.636719 C 22.296875 8.636719 22.136719 8.476562 22.136719 8.273438 L 22.136719 7.359375 C 22.136719 7.160156 22.296875 6.996094 22.5 6.996094 C 22.699219 6.996094 22.859375 7.160156 22.859375 7.359375 Z M 22.832031 6.660156 C 22.832031 6.460938 22.996094 6.300781 23.195312 6.300781 L 24.113281 6.300781 C 24.3125 6.300781 24.472656 6.460938 24.472656 6.660156 C 24.472656 6.863281 24.3125 7.023438 24.113281 7.023438 L 23.195312 7.023438 C 22.996094 7.023438 22.832031 6.863281 22.832031 6.660156 Z M 22.167969 6.660156 C 22.167969 6.863281 22.007812 7.023438 21.804688 7.023438 L 20.890625 7.023438 C 20.691406 7.023438 20.527344 6.863281 20.527344 6.660156 C 20.527344 6.460938 20.691406 6.300781 20.890625 6.300781 L 21.804688 6.300781 C 22.007812 6.300781 22.167969 6.460938 22.167969 6.660156 Z M 14.628906 4.746094 L 14.628906 4.195312 C 14.628906 3.996094 14.789062 3.832031 14.992188 3.832031 C 15.191406 3.832031 15.351562 3.996094 15.351562 4.195312 L 15.351562 4.746094 C 15.351562 4.949219 15.191406 5.109375 14.992188 5.109375 C 14.789062 5.109375 14.628906 4.949219 14.628906 4.746094 Z M 16.804688 6.203125 L 17.355469 6.203125 C 17.558594 6.203125 17.71875 6.367188 17.71875 6.566406 C 17.71875 6.765625 17.558594 6.929688 17.355469 6.929688 L 16.804688 6.929688 C 16.605469 6.929688 16.441406 6.765625 16.441406 6.566406 C 16.441406 6.367188 16.605469 6.203125 16.804688 6.203125 Z M 13.171875 6.929688 L 12.617188 6.929688 C 12.417969 6.929688 12.253906 6.765625 12.253906 6.566406 C 12.253906 6.367188 12.417969 6.203125 12.617188 6.203125 L 13.171875 6.203125 C 13.371094 6.203125 13.535156 6.367188 13.535156 6.566406 C 13.535156 6.765625 13.371094 6.929688 13.171875 6.929688 Z M 16.019531 5.535156 C 15.875 5.394531 15.875 5.164062 16.015625 5.019531 L 16.402344 4.636719 C 16.542969 4.492188 16.773438 4.496094 16.914062 4.636719 C 17.058594 4.777344 17.058594 5.007812 16.917969 5.148438 L 16.53125 5.535156 C 16.460938 5.605469 16.367188 5.640625 16.273438 5.640625 C 16.179688 5.640625 16.089844 5.605469 16.019531 5.535156 Z M 13.0625 8.5 C 12.917969 8.359375 12.917969 8.128906 13.058594 7.988281 L 13.441406 7.597656 C 13.582031 7.453125 13.8125 7.453125 13.957031 7.59375 C 14.097656 7.734375 14.101562 7.964844 13.960938 8.105469 L 13.574219 8.496094 C 13.503906 8.566406 13.410156 8.605469 13.316406 8.605469 C 13.222656 8.605469 13.132812 8.570312 13.0625 8.5 Z M 16.917969 7.988281 C 17.058594 8.128906 17.058594 8.359375 16.914062 8.5 C 16.84375 8.570312 16.75 8.605469 16.660156 8.605469 C 16.566406 8.605469 16.472656 8.566406 16.402344 8.496094 L 16.015625 8.105469 C 15.875 7.964844 15.875 7.734375 16.019531 7.59375 C 16.164062 7.453125 16.390625 7.453125 16.53125 7.597656 Z M 13.058594 5.148438 C 12.917969 5.007812 12.917969 4.777344 13.058594 4.636719 C 13.203125 4.496094 13.429688 4.492188 13.574219 4.636719 L 13.957031 5.019531 C 14.097656 5.164062 14.097656 5.394531 13.957031 5.535156 C 13.886719 5.605469 13.792969 5.640625 13.699219 5.640625 C 13.609375 5.640625 13.515625 5.605469 13.445312 5.535156 Z M 13.058594 5.148438 " fill-opacity="1" fill-rule="nonzero"/></g></svg>