<svg xmlns="http://www.w3.org/2000/svg" xmlns:xlink="http://www.w3.org/1999/xlink" width="40" zoomAndPan="magnify" viewBox="0 0 30 30.000001" height="40" preserveAspectRatio="xMidYMid meet" version="1.0"><defs><clipPath id="c35fa73ab8"><path d="M 13 2.214844 L 16 2.214844 L 16 5 L 13 5 Z M 13 2.214844 " clip-rule="nonzero"/></clipPath><clipPath id="7cf2731aef"><path d="M 13 24 L 16 24 L 16 26.890625 L 13 26.890625 Z M 13 24 " clip-rule="nonzero"/></clipPath></defs><path fill="#5e17eb" d="M 14.308594 22.824219 C 11.039062 22.824219 8.0625 20.902344 6.714844 17.921875 C 6.667969 17.78125 6.714844 17.636719 6.859375 17.585938 C 6.957031 17.539062 7.101562 17.585938 7.148438 17.730469 C 8.398438 20.519531 11.230469 22.34375 14.308594 22.34375 C 17.382812 22.34375 20.214844 20.519531 21.464844 17.730469 C 21.511719 17.585938 21.65625 17.539062 21.753906 17.585938 C 21.898438 17.636719 21.945312 17.78125 21.898438 17.921875 C 20.550781 20.902344 17.574219 22.824219 14.308594 22.824219 Z M 21.65625 11.4375 C 21.5625 11.4375 21.511719 11.390625 21.464844 11.292969 C 20.214844 8.507812 17.382812 6.683594 14.308594 6.683594 C 11.230469 6.683594 8.398438 8.507812 7.148438 11.292969 C 7.101562 11.4375 6.957031 11.484375 6.859375 11.4375 C 6.714844 11.390625 6.667969 11.246094 6.714844 11.101562 C 8.0625 8.121094 11.039062 6.203125 14.308594 6.203125 C 17.574219 6.203125 20.550781 8.121094 21.898438 11.101562 C 21.945312 11.246094 21.898438 11.390625 21.753906 11.4375 C 21.753906 11.4375 21.707031 11.4375 21.65625 11.4375 Z M 21.65625 11.4375 " fill-opacity="1" fill-rule="evenodd"/><path fill="#5e17eb" d="M 14.835938 20.421875 L 13.777344 20.421875 C 13.441406 20.421875 12.960938 20.277344 12.722656 19.605469 L 12.578125 19.222656 C 12.050781 19.027344 11.519531 18.742188 11.089844 18.355469 L 10.65625 18.402344 C 10.128906 18.5 9.695312 18.355469 9.453125 17.972656 L 8.878906 17.011719 C 8.734375 16.722656 8.636719 16.242188 9.117188 15.714844 L 9.359375 15.378906 C 9.3125 15.089844 9.3125 14.800781 9.3125 14.511719 C 9.3125 14.222656 9.3125 13.9375 9.359375 13.648438 L 9.117188 13.3125 C 8.636719 12.78125 8.734375 12.304688 8.878906 12.015625 L 9.453125 11.054688 C 9.695312 10.667969 10.128906 10.523438 10.65625 10.621094 L 11.089844 10.667969 C 11.519531 10.285156 12.050781 9.996094 12.578125 9.804688 L 12.722656 9.421875 C 12.960938 8.746094 13.441406 8.601562 13.777344 8.601562 L 14.835938 8.601562 C 15.171875 8.601562 15.652344 8.746094 15.890625 9.421875 L 16.035156 9.804688 C 16.566406 9.996094 17.09375 10.285156 17.527344 10.667969 L 17.957031 10.621094 C 18.488281 10.523438 18.917969 10.667969 19.160156 11.054688 L 19.734375 12.015625 C 19.878906 12.304688 19.976562 12.78125 19.496094 13.3125 L 19.253906 13.648438 C 19.304688 13.9375 19.304688 14.222656 19.304688 14.511719 C 19.304688 14.800781 19.304688 15.089844 19.253906 15.378906 L 19.496094 15.714844 C 19.976562 16.242188 19.878906 16.722656 19.734375 17.011719 L 19.160156 17.972656 C 18.917969 18.355469 18.488281 18.5 17.957031 18.402344 L 17.527344 18.355469 C 17.09375 18.742188 16.566406 19.027344 16.035156 19.222656 L 15.890625 19.605469 C 15.652344 20.277344 15.171875 20.421875 14.835938 20.421875 Z M 11.183594 17.828125 C 11.230469 17.828125 11.28125 17.875 11.328125 17.921875 C 11.761719 18.308594 12.289062 18.597656 12.867188 18.789062 C 12.914062 18.835938 12.960938 18.882812 13.011719 18.933594 L 13.203125 19.460938 C 13.347656 19.894531 13.585938 19.941406 13.777344 19.941406 L 14.835938 19.941406 C 15.027344 19.941406 15.269531 19.894531 15.410156 19.460938 L 15.605469 18.933594 C 15.652344 18.882812 15.699219 18.835938 15.75 18.789062 C 16.324219 18.597656 16.851562 18.308594 17.285156 17.921875 C 17.332031 17.875 17.429688 17.828125 17.476562 17.875 L 18.054688 17.972656 C 18.390625 18.019531 18.632812 17.921875 18.726562 17.730469 L 19.304688 16.769531 C 19.398438 16.625 19.449219 16.386719 19.160156 16.003906 L 18.773438 15.617188 C 18.726562 15.570312 18.726562 15.472656 18.726562 15.425781 C 18.824219 15.089844 18.824219 14.800781 18.824219 14.511719 C 18.824219 14.222656 18.824219 13.9375 18.726562 13.601562 C 18.726562 13.550781 18.726562 13.457031 18.773438 13.40625 L 19.160156 13.023438 C 19.449219 12.640625 19.398438 12.398438 19.304688 12.253906 L 18.726562 11.292969 C 18.632812 11.101562 18.390625 11.003906 18.054688 11.054688 L 17.476562 11.148438 C 17.429688 11.199219 17.332031 11.148438 17.285156 11.101562 C 16.851562 10.71875 16.324219 10.429688 15.75 10.238281 C 15.699219 10.1875 15.652344 10.140625 15.605469 10.09375 L 15.410156 9.5625 C 15.269531 9.132812 15.027344 9.082031 14.835938 9.082031 L 13.777344 9.082031 C 13.585938 9.082031 13.347656 9.132812 13.203125 9.5625 L 13.011719 10.09375 C 12.960938 10.140625 12.914062 10.1875 12.867188 10.238281 C 12.289062 10.429688 11.761719 10.71875 11.328125 11.101562 C 11.28125 11.148438 11.183594 11.199219 11.136719 11.148438 L 10.558594 11.054688 C 10.222656 11.003906 9.984375 11.101562 9.886719 11.292969 L 9.3125 12.253906 C 9.214844 12.398438 9.167969 12.640625 9.453125 13.023438 L 9.839844 13.40625 C 9.886719 13.457031 9.886719 13.550781 9.886719 13.601562 C 9.792969 13.9375 9.792969 14.222656 9.792969 14.511719 C 9.792969 14.800781 9.792969 15.089844 9.886719 15.425781 C 9.886719 15.472656 9.886719 15.570312 9.839844 15.617188 L 9.453125 16.003906 C 9.167969 16.386719 9.214844 16.625 9.3125 16.769531 L 9.886719 17.730469 C 9.984375 17.921875 10.222656 18.019531 10.558594 17.972656 L 11.136719 17.875 C 11.136719 17.828125 11.136719 17.828125 11.183594 17.828125 Z M 11.183594 17.828125 " fill-opacity="1" fill-rule="evenodd"/><path fill="#5e17eb" d="M 14.308594 16.578125 C 13.152344 16.578125 12.242188 15.664062 12.242188 14.511719 C 12.242188 13.359375 13.152344 12.445312 14.308594 12.445312 C 15.460938 12.445312 16.371094 13.359375 16.371094 14.511719 C 16.371094 15.664062 15.460938 16.578125 14.308594 16.578125 Z M 14.308594 12.925781 C 13.441406 12.925781 12.722656 13.648438 12.722656 14.511719 C 12.722656 15.378906 13.441406 16.097656 14.308594 16.097656 C 15.171875 16.097656 15.890625 15.378906 15.890625 14.511719 C 15.890625 13.648438 15.171875 12.925781 14.308594 12.925781 Z M 14.308594 12.925781 " fill-opacity="1" fill-rule="evenodd"/><path fill="#5e17eb" d="M 14.308594 17.921875 C 12.433594 17.921875 10.894531 16.386719 10.894531 14.511719 C 10.894531 13.886719 11.039062 13.3125 11.375 12.78125 C 11.425781 12.640625 11.570312 12.640625 11.664062 12.6875 C 11.808594 12.734375 11.855469 12.878906 11.761719 13.023438 C 11.519531 13.457031 11.375 13.984375 11.375 14.511719 C 11.375 16.144531 12.671875 17.441406 14.308594 17.441406 C 14.835938 17.441406 15.363281 17.300781 15.796875 17.058594 C 15.941406 16.964844 16.085938 17.011719 16.132812 17.15625 C 16.179688 17.25 16.179688 17.394531 16.035156 17.441406 C 15.507812 17.78125 14.929688 17.921875 14.308594 17.921875 Z M 17.046875 16.386719 C 16.996094 16.386719 16.949219 16.339844 16.949219 16.339844 C 16.804688 16.289062 16.757812 16.144531 16.851562 16.003906 C 17.09375 15.570312 17.238281 15.042969 17.238281 14.511719 C 17.238281 12.878906 15.941406 11.582031 14.308594 11.582031 C 13.777344 11.582031 13.25 11.726562 12.816406 11.964844 C 12.671875 12.0625 12.53125 12.015625 12.480469 11.871094 C 12.433594 11.773438 12.433594 11.628906 12.578125 11.582031 C 13.105469 11.246094 13.683594 11.101562 14.308594 11.101562 C 16.179688 11.101562 17.71875 12.640625 17.71875 14.511719 C 17.71875 15.136719 17.574219 15.714844 17.238281 16.242188 C 17.238281 16.339844 17.140625 16.386719 17.046875 16.386719 Z M 17.046875 16.386719 " fill-opacity="1" fill-rule="evenodd"/><path fill="#5e17eb" d="M 6.957031 11.4375 C 6.910156 11.4375 6.859375 11.4375 6.8125 11.4375 C 6.765625 11.390625 6.714844 11.34375 6.714844 11.246094 L 6.476562 10.238281 C 6.429688 10.140625 6.523438 9.996094 6.621094 9.949219 C 6.765625 9.949219 6.910156 9.996094 6.910156 10.140625 L 7.101562 10.863281 L 7.773438 10.574219 C 7.917969 10.476562 8.0625 10.574219 8.109375 10.667969 C 8.15625 10.8125 8.109375 10.957031 8.011719 11.003906 L 7.050781 11.4375 C 7.003906 11.4375 6.957031 11.4375 6.957031 11.4375 Z M 6.957031 11.4375 " fill-opacity="1" fill-rule="evenodd"/><path fill="#5e17eb" d="M 21.898438 19.078125 C 21.753906 19.078125 21.65625 18.980469 21.65625 18.882812 L 21.511719 18.164062 L 20.792969 18.453125 C 20.695312 18.5 20.550781 18.402344 20.503906 18.308594 C 20.457031 18.164062 20.503906 18.019531 20.601562 17.972656 L 21.5625 17.585938 C 21.65625 17.585938 21.707031 17.585938 21.800781 17.585938 C 21.851562 17.636719 21.898438 17.683594 21.898438 17.78125 L 22.136719 18.789062 C 22.136719 18.933594 22.042969 19.027344 21.945312 19.078125 C 21.898438 19.078125 21.898438 19.078125 21.898438 19.078125 Z M 21.898438 19.078125 " fill-opacity="1" fill-rule="evenodd"/><path fill="#5e17eb" d="M 8.398438 9.277344 C 8.351562 9.277344 8.351562 9.277344 8.300781 9.277344 L 5.996094 8.652344 C 5.851562 8.601562 5.804688 8.507812 5.804688 8.410156 L 5.804688 5.960938 C 5.804688 5.816406 5.898438 5.722656 6.042969 5.722656 C 6.1875 5.722656 6.285156 5.816406 6.285156 5.960938 L 6.285156 8.21875 L 8.445312 8.796875 C 8.589844 8.84375 8.636719 8.988281 8.589844 9.082031 C 8.589844 9.179688 8.492188 9.277344 8.398438 9.277344 Z M 8.398438 9.277344 " fill-opacity="1" fill-rule="evenodd"/><path fill="#5e17eb" d="M 20.214844 9.277344 C 20.121094 9.277344 20.023438 9.179688 20.023438 9.082031 C 19.976562 8.988281 20.023438 8.84375 20.167969 8.796875 L 22.332031 8.21875 L 22.332031 5.960938 C 22.332031 5.816406 22.425781 5.722656 22.570312 5.722656 C 22.714844 5.722656 22.8125 5.816406 22.8125 5.960938 L 22.8125 8.410156 C 22.8125 8.507812 22.761719 8.601562 22.617188 8.652344 L 20.3125 9.277344 C 20.265625 9.277344 20.265625 9.277344 20.214844 9.277344 Z M 20.214844 9.277344 " fill-opacity="1" fill-rule="evenodd"/><path fill="#5e17eb" d="M 6.042969 6.203125 C 5.417969 6.203125 4.890625 5.671875 4.890625 5.046875 C 4.890625 4.421875 5.417969 3.894531 6.042969 3.894531 C 6.667969 3.894531 7.195312 4.421875 7.195312 5.046875 C 7.195312 5.671875 6.667969 6.203125 6.042969 6.203125 Z M 6.042969 4.375 C 5.660156 4.375 5.371094 4.664062 5.371094 5.046875 C 5.371094 5.433594 5.660156 5.722656 6.042969 5.722656 C 6.429688 5.722656 6.714844 5.433594 6.714844 5.046875 C 6.714844 4.664062 6.429688 4.375 6.042969 4.375 Z M 6.042969 4.375 " fill-opacity="1" fill-rule="evenodd"/><path fill="#5e17eb" d="M 22.570312 6.203125 C 21.945312 6.203125 21.417969 5.671875 21.417969 5.046875 C 21.417969 4.421875 21.945312 3.894531 22.570312 3.894531 C 23.195312 3.894531 23.722656 4.421875 23.722656 5.046875 C 23.722656 5.671875 23.195312 6.203125 22.570312 6.203125 Z M 22.570312 4.375 C 22.1875 4.375 21.898438 4.664062 21.898438 5.046875 C 21.898438 5.433594 22.1875 5.722656 22.570312 5.722656 C 22.953125 5.722656 23.242188 5.433594 23.242188 5.046875 C 23.242188 4.664062 22.953125 4.375 22.570312 4.375 Z M 22.570312 4.375 " fill-opacity="1" fill-rule="evenodd"/><path fill="#5e17eb" d="M 6.042969 23.304688 C 5.898438 23.304688 5.804688 23.207031 5.804688 23.0625 L 5.804688 20.613281 C 5.804688 20.519531 5.851562 20.421875 5.996094 20.375 L 8.300781 19.75 C 8.445312 19.75 8.589844 19.796875 8.589844 19.941406 C 8.636719 20.039062 8.589844 20.183594 8.445312 20.230469 L 6.285156 20.804688 L 6.285156 23.0625 C 6.285156 23.207031 6.1875 23.304688 6.042969 23.304688 Z M 6.042969 23.304688 " fill-opacity="1" fill-rule="evenodd"/><path fill="#5e17eb" d="M 22.570312 23.304688 C 22.425781 23.304688 22.332031 23.207031 22.332031 23.0625 L 22.332031 20.804688 L 20.167969 20.230469 C 20.023438 20.183594 19.976562 20.039062 20.023438 19.941406 C 20.023438 19.796875 20.167969 19.75 20.3125 19.75 L 22.617188 20.375 C 22.761719 20.421875 22.8125 20.519531 22.8125 20.613281 L 22.8125 23.0625 C 22.8125 23.207031 22.714844 23.304688 22.570312 23.304688 Z M 22.570312 23.304688 " fill-opacity="1" fill-rule="evenodd"/><path fill="#5e17eb" d="M 6.042969 25.128906 C 5.417969 25.128906 4.890625 24.601562 4.890625 23.976562 C 4.890625 23.351562 5.417969 22.824219 6.042969 22.824219 C 6.667969 22.824219 7.195312 23.351562 7.195312 23.976562 C 7.195312 24.601562 6.667969 25.128906 6.042969 25.128906 Z M 6.042969 23.304688 C 5.660156 23.304688 5.371094 23.59375 5.371094 23.976562 C 5.371094 24.363281 5.660156 24.648438 6.042969 24.648438 C 6.429688 24.648438 6.714844 24.363281 6.714844 23.976562 C 6.714844 23.59375 6.429688 23.304688 6.042969 23.304688 Z M 6.042969 23.304688 " fill-opacity="1" fill-rule="evenodd"/><path fill="#5e17eb" d="M 22.570312 25.128906 C 21.945312 25.128906 21.417969 24.601562 21.417969 23.976562 C 21.417969 23.351562 21.945312 22.824219 22.570312 22.824219 C 23.195312 22.824219 23.722656 23.351562 23.722656 23.976562 C 23.722656 24.601562 23.195312 25.128906 22.570312 25.128906 Z M 22.570312 23.304688 C 22.1875 23.304688 21.898438 23.59375 21.898438 23.976562 C 21.898438 24.363281 22.1875 24.648438 22.570312 24.648438 C 22.953125 24.648438 23.242188 24.363281 23.242188 23.976562 C 23.242188 23.59375 22.953125 23.304688 22.570312 23.304688 Z M 22.570312 23.304688 " fill-opacity="1" fill-rule="evenodd"/><path fill="#5e17eb" d="M 14.308594 6.683594 C 14.164062 6.683594 14.066406 6.585938 14.066406 6.441406 L 14.066406 4.28125 C 14.066406 4.136719 14.164062 4.039062 14.308594 4.039062 C 14.453125 4.039062 14.546875 4.136719 14.546875 4.28125 L 14.546875 6.441406 C 14.546875 6.585938 14.453125 6.683594 14.308594 6.683594 Z M 14.308594 6.683594 " fill-opacity="1" fill-rule="evenodd"/><g clip-path="url(#c35fa73ab8)"><path fill="#5e17eb" d="M 14.308594 4.519531 C 13.683594 4.519531 13.152344 3.992188 13.152344 3.367188 C 13.152344 2.742188 13.683594 2.214844 14.308594 2.214844 C 14.929688 2.214844 15.460938 2.742188 15.460938 3.367188 C 15.460938 3.992188 14.929688 4.519531 14.308594 4.519531 Z M 14.308594 2.695312 C 13.921875 2.695312 13.632812 2.980469 13.632812 3.367188 C 13.632812 3.75 13.921875 4.039062 14.308594 4.039062 C 14.691406 4.039062 14.980469 3.75 14.980469 3.367188 C 14.980469 2.980469 14.691406 2.695312 14.308594 2.695312 Z M 14.308594 2.695312 " fill-opacity="1" fill-rule="evenodd"/></g><path fill="#5e17eb" d="M 14.308594 24.984375 C 14.164062 24.984375 14.066406 24.890625 14.066406 24.746094 L 14.066406 22.582031 C 14.066406 22.441406 14.164062 22.34375 14.308594 22.34375 C 14.453125 22.34375 14.546875 22.441406 14.546875 22.582031 L 14.546875 24.746094 C 14.546875 24.890625 14.453125 24.984375 14.308594 24.984375 Z M 14.308594 24.984375 " fill-opacity="1" fill-rule="evenodd"/><g clip-path="url(#7cf2731aef)"><path fill="#5e17eb" d="M 14.308594 26.8125 C 13.683594 26.8125 13.152344 26.285156 13.152344 25.660156 C 13.152344 25.035156 13.683594 24.503906 14.308594 24.503906 C 14.929688 24.503906 15.460938 25.035156 15.460938 25.660156 C 15.460938 26.285156 14.929688 26.8125 14.308594 26.8125 Z M 14.308594 24.984375 C 13.921875 24.984375 13.632812 25.273438 13.632812 25.660156 C 13.632812 26.042969 13.921875 26.332031 14.308594 26.332031 C 14.691406 26.332031 14.980469 26.042969 14.980469 25.660156 C 14.980469 25.273438 14.691406 24.984375 14.308594 24.984375 Z M 14.308594 24.984375 " fill-opacity="1" fill-rule="evenodd"/></g><path fill="#5e17eb" d="M 23.914062 15.664062 C 23.292969 15.664062 22.761719 15.136719 22.761719 14.511719 C 22.761719 13.886719 23.292969 13.359375 23.914062 13.359375 C 24.539062 13.359375 25.070312 13.886719 25.070312 14.511719 C 25.070312 15.136719 24.539062 15.664062 23.914062 15.664062 Z M 23.914062 13.839844 C 23.53125 13.839844 23.242188 14.128906 23.242188 14.511719 C 23.242188 14.898438 23.53125 15.183594 23.914062 15.183594 C 24.300781 15.183594 24.589844 14.898438 24.589844 14.511719 C 24.589844 14.128906 24.300781 13.839844 23.914062 13.839844 Z M 23.914062 13.839844 " fill-opacity="1" fill-rule="evenodd"/><path fill="#5e17eb" d="M 23.003906 14.753906 L 20.839844 14.753906 C 20.695312 14.753906 20.601562 14.65625 20.601562 14.511719 C 20.601562 14.367188 20.695312 14.273438 20.839844 14.273438 L 23.003906 14.273438 C 23.148438 14.273438 23.242188 14.367188 23.242188 14.511719 C 23.242188 14.65625 23.148438 14.753906 23.003906 14.753906 Z M 23.003906 14.753906 " fill-opacity="1" fill-rule="evenodd"/><path fill="#5e17eb" d="M 7.773438 14.753906 L 5.609375 14.753906 C 5.46875 14.753906 5.371094 14.65625 5.371094 14.511719 C 5.371094 14.367188 5.46875 14.273438 5.609375 14.273438 L 7.773438 14.273438 C 7.917969 14.273438 8.011719 14.367188 8.011719 14.511719 C 8.011719 14.65625 7.917969 14.753906 7.773438 14.753906 Z M 7.773438 14.753906 " fill-opacity="1" fill-rule="evenodd"/><path fill="#5e17eb" d="M 4.699219 15.664062 C 4.074219 15.664062 3.546875 15.136719 3.546875 14.511719 C 3.546875 13.886719 4.074219 13.359375 4.699219 13.359375 C 5.324219 13.359375 5.851562 13.886719 5.851562 14.511719 C 5.851562 15.136719 5.324219 15.664062 4.699219 15.664062 Z M 4.699219 13.839844 C 4.3125 13.839844 4.027344 14.128906 4.027344 14.511719 C 4.027344 14.898438 4.3125 15.183594 4.699219 15.183594 C 5.082031 15.183594 5.371094 14.898438 5.371094 14.511719 C 5.371094 14.128906 5.082031 13.839844 4.699219 13.839844 Z M 4.699219 13.839844 " fill-opacity="1" fill-rule="evenodd"/><path fill="#5e17eb" d="M 14.113281 15.042969 C 14.019531 15.042969 13.972656 14.992188 13.921875 14.945312 L 13.730469 14.753906 C 13.632812 14.65625 13.632812 14.511719 13.730469 14.417969 C 13.828125 14.320312 13.972656 14.320312 14.066406 14.417969 L 14.113281 14.464844 L 14.546875 14.03125 C 14.644531 13.9375 14.789062 13.984375 14.882812 14.082031 C 14.980469 14.175781 14.980469 14.320312 14.882812 14.417969 L 14.257812 14.992188 C 14.210938 15.042969 14.164062 15.042969 14.113281 15.042969 Z M 14.113281 15.042969 " fill-opacity="1" fill-rule="evenodd"/></svg>