<svg xmlns="http://www.w3.org/2000/svg" xmlns:xlink="http://www.w3.org/1999/xlink" width="40" zoomAndPan="magnify" viewBox="0 0 30 30.000001" height="40" preserveAspectRatio="xMidYMid meet" version="1.0"><defs><clipPath id="0b9e6af296"><path d="M 2.039062 0.898438 L 28 0.898438 L 28 29.03125 L 2.039062 29.03125 Z M 2.039062 0.898438 " clip-rule="nonzero"/></clipPath></defs><g clip-path="url(#0b9e6af296)"><path fill="#5e17eb" d="M 20.179688 5.03125 L 20.179688 4.171875 L 19.324219 4.171875 C 19.117188 4.171875 18.949219 4.003906 18.949219 3.796875 C 18.949219 3.589844 19.117188 3.421875 19.324219 3.421875 L 20.179688 3.421875 L 20.179688 2.570312 C 20.179688 2.363281 20.34375 2.195312 20.550781 2.195312 C 20.757812 2.195312 20.925781 2.363281 20.925781 2.570312 L 20.925781 3.421875 L 21.785156 3.421875 C 21.992188 3.421875 22.160156 3.589844 22.160156 3.796875 C 22.160156 4.003906 21.992188 4.171875 21.785156 4.171875 L 20.925781 4.171875 L 20.925781 5.03125 C 20.925781 5.238281 20.757812 5.40625 20.550781 5.40625 C 20.34375 5.40625 20.179688 5.238281 20.179688 5.03125 Z M 4.097656 5.40625 C 4.304688 5.40625 4.472656 5.238281 4.472656 5.03125 L 4.472656 4.171875 L 5.328125 4.171875 C 5.535156 4.171875 5.703125 4.003906 5.703125 3.796875 C 5.703125 3.589844 5.535156 3.421875 5.328125 3.421875 L 4.472656 3.421875 L 4.472656 2.570312 C 4.472656 2.363281 4.304688 2.195312 4.097656 2.195312 C 3.894531 2.195312 3.726562 2.363281 3.726562 2.570312 L 3.726562 3.421875 L 2.867188 3.421875 C 2.660156 3.421875 2.492188 3.589844 2.492188 3.796875 C 2.492188 4.003906 2.660156 4.171875 2.867188 4.171875 L 3.726562 4.171875 L 3.726562 5.03125 C 3.726562 5.238281 3.894531 5.40625 4.097656 5.40625 Z M 12.75 26.617188 C 12.957031 26.617188 13.125 26.449219 13.125 26.242188 L 13.125 25.292969 C 13.125 25.085938 12.957031 24.917969 12.75 24.917969 C 12.542969 24.917969 12.375 25.085938 12.375 25.292969 L 12.375 26.242188 C 12.375 26.449219 12.542969 26.617188 12.75 26.617188 Z M 12.75 29.003906 C 12.957031 29.003906 13.125 28.835938 13.125 28.628906 L 13.125 27.683594 C 13.125 27.476562 12.957031 27.308594 12.75 27.308594 C 12.542969 27.308594 12.375 27.476562 12.375 27.683594 L 12.375 28.628906 C 12.375 28.835938 12.542969 29.003906 12.75 29.003906 Z M 13.46875 27.339844 L 14.414062 27.339844 C 14.621094 27.339844 14.789062 27.171875 14.789062 26.964844 C 14.789062 26.757812 14.621094 26.589844 14.414062 26.589844 L 13.46875 26.589844 C 13.261719 26.589844 13.09375 26.757812 13.09375 26.964844 C 13.09375 27.171875 13.261719 27.339844 13.46875 27.339844 Z M 11.085938 27.339844 L 12.027344 27.339844 C 12.234375 27.339844 12.402344 27.171875 12.402344 26.964844 C 12.402344 26.757812 12.234375 26.589844 12.027344 26.589844 L 11.085938 26.589844 C 10.878906 26.589844 10.710938 26.757812 10.710938 26.964844 C 10.710938 27.171875 10.878906 27.339844 11.085938 27.339844 Z M 25.949219 6.398438 L 25.007812 8.292969 C 25.820312 8.652344 26.390625 9.460938 26.390625 10.402344 C 26.390625 11.402344 25.742188 12.25 24.847656 12.566406 L 24.878906 22.90625 C 25.144531 22.953125 25.402344 23.046875 25.636719 23.179688 C 26.738281 23.828125 27.105469 25.242188 26.464844 26.339844 C 26.15625 26.871094 25.660156 27.25 25.066406 27.410156 C 24.871094 27.460938 24.671875 27.484375 24.476562 27.484375 C 24.070312 27.484375 23.667969 27.378906 23.308594 27.164062 C 22.617188 26.761719 22.191406 26.019531 22.167969 25.238281 L 7.316406 23.808594 C 6.894531 24.285156 6.285156 24.589844 5.605469 24.589844 C 5.464844 24.589844 5.332031 24.570312 5.199219 24.546875 L 4.796875 25.71875 C 5.320312 25.96875 5.683594 26.496094 5.683594 27.113281 C 5.683594 27.964844 4.992188 28.65625 4.140625 28.65625 C 3.289062 28.65625 2.59375 27.964844 2.59375 27.113281 C 2.59375 26.292969 3.242188 25.625 4.050781 25.578125 L 4.496094 24.292969 C 3.785156 23.898438 3.296875 23.152344 3.296875 22.285156 C 3.296875 21.308594 3.910156 20.476562 4.773438 20.140625 L 3.984375 12.679688 C 3.707031 12.632812 3.441406 12.542969 3.1875 12.398438 C 2.652344 12.089844 2.273438 11.59375 2.117188 10.996094 C 1.957031 10.398438 2.042969 9.773438 2.359375 9.238281 C 2.664062 8.707031 3.164062 8.328125 3.757812 8.171875 C 4.355469 8.011719 4.980469 8.097656 5.515625 8.414062 C 5.640625 8.484375 5.75 8.566406 5.851562 8.65625 L 12.042969 4.773438 C 11.988281 4.574219 11.949219 4.367188 11.949219 4.148438 C 11.949219 3.804688 12.027344 3.484375 12.160156 3.191406 L 11.050781 2.949219 C 10.84375 3.558594 10.269531 4.003906 9.589844 4.003906 C 8.738281 4.003906 8.046875 3.3125 8.046875 2.460938 C 8.046875 1.609375 8.738281 0.914062 9.589844 0.914062 C 10.351562 0.914062 10.980469 1.46875 11.109375 2.195312 L 12.617188 2.523438 C 13.035156 2.101562 13.613281 1.839844 14.253906 1.839844 C 15.523438 1.839844 16.558594 2.875 16.558594 4.148438 C 16.558594 4.359375 16.519531 4.566406 16.464844 4.765625 L 22.757812 8.523438 C 23.132812 8.257812 23.589844 8.097656 24.085938 8.097656 C 24.144531 8.097656 24.203125 8.109375 24.261719 8.113281 L 25.304688 6.015625 C 25.304688 6.015625 25.308594 6.015625 25.308594 6.015625 C 25.03125 5.734375 24.863281 5.355469 24.863281 4.933594 C 24.863281 4.082031 25.554688 3.386719 26.40625 3.386719 C 27.257812 3.386719 27.953125 4.082031 27.953125 4.933594 C 27.953125 5.785156 27.257812 6.476562 26.40625 6.476562 C 26.246094 6.476562 26.097656 6.445312 25.949219 6.398438 Z M 10.386719 2.460938 C 10.386719 2.023438 10.03125 1.664062 9.589844 1.664062 C 9.152344 1.664062 8.796875 2.023438 8.796875 2.460938 C 8.796875 2.898438 9.152344 3.253906 9.589844 3.253906 C 10.03125 3.253906 10.386719 2.898438 10.386719 2.460938 Z M 4.933594 27.113281 C 4.933594 26.675781 4.578125 26.316406 4.140625 26.316406 C 3.703125 26.316406 3.34375 26.675781 3.34375 27.113281 C 3.34375 27.550781 3.703125 27.910156 4.140625 27.910156 C 4.578125 27.910156 4.933594 27.550781 4.933594 27.113281 Z M 21.78125 10.402344 C 21.78125 9.90625 21.941406 9.445312 22.210938 9.070312 L 16.152344 5.453125 C 15.796875 5.972656 15.246094 6.328125 14.621094 6.429688 L 14.621094 9.644531 C 16.710938 9.785156 18.484375 11.09375 19.28125 12.929688 L 21.941406 11.234375 C 21.839844 10.972656 21.78125 10.695312 21.78125 10.402344 Z M 18.992188 15.117188 C 18.992188 12.5 16.863281 10.371094 14.246094 10.371094 C 11.632812 10.371094 9.503906 12.5 9.503906 15.117188 C 9.503906 17.730469 11.632812 19.859375 14.246094 19.859375 C 16.863281 19.859375 18.992188 17.730469 18.992188 15.117188 Z M 6.5 11.238281 L 9.140625 13.105469 C 9.902344 11.179688 11.71875 9.789062 13.875 9.644531 L 13.875 6.425781 C 13.261719 6.320312 12.714844 5.972656 12.359375 5.460938 L 6.335938 9.234375 C 6.695312 9.835938 6.761719 10.574219 6.5 11.238281 Z M 12.699219 4.148438 C 12.699219 4.378906 12.742188 4.59375 12.832031 4.789062 C 13.089844 5.359375 13.632812 5.710938 14.253906 5.710938 C 14.863281 5.710938 15.417969 5.351562 15.671875 4.792969 C 15.679688 4.777344 15.679688 4.757812 15.691406 4.742188 C 15.765625 4.554688 15.808594 4.355469 15.808594 4.148438 C 15.808594 3.289062 15.113281 2.585938 14.253906 2.585938 C 13.394531 2.585938 12.699219 3.289062 12.699219 4.148438 Z M 3.5625 11.75 C 3.804688 11.886719 4.0625 11.957031 4.332031 11.964844 C 4.335938 11.964844 4.339844 11.964844 4.34375 11.964844 C 4.890625 11.964844 5.40625 11.664062 5.695312 11.183594 C 6.035156 10.605469 5.964844 9.878906 5.523438 9.382812 C 5.417969 9.253906 5.289062 9.148438 5.136719 9.058594 C 4.894531 8.914062 4.621094 8.84375 4.347656 8.84375 C 4.214844 8.84375 4.082031 8.859375 3.949219 8.894531 C 3.546875 9 3.214844 9.257812 3.007812 9.613281 C 2.792969 9.980469 2.734375 10.402344 2.839844 10.804688 C 2.945312 11.207031 3.203125 11.542969 3.5625 11.75 Z M 5.507812 19.988281 C 5.542969 19.988281 5.570312 19.980469 5.605469 19.980469 C 6.226562 19.980469 6.792969 20.230469 7.207031 20.632812 L 9.996094 18.585938 C 9.222656 17.640625 8.757812 16.433594 8.757812 15.117188 C 8.757812 14.679688 8.8125 14.261719 8.90625 13.855469 L 6.113281 11.878906 C 5.757812 12.296875 5.269531 12.578125 4.738281 12.671875 Z M 7.160156 22.285156 C 7.160156 21.425781 6.460938 20.726562 5.605469 20.726562 C 4.746094 20.726562 4.046875 21.425781 4.046875 22.285156 C 4.046875 23.140625 4.746094 23.839844 5.605469 23.839844 C 6.460938 23.839844 7.160156 23.140625 7.160156 22.285156 Z M 7.910156 22.285156 C 7.910156 22.574219 7.847656 22.84375 7.753906 23.101562 L 22.269531 24.496094 C 22.320312 24.328125 22.386719 24.164062 22.480469 24.007812 C 22.5625 23.867188 22.664062 23.738281 22.777344 23.621094 L 17.582031 19.46875 C 16.65625 20.179688 15.5 20.605469 14.246094 20.605469 C 12.808594 20.605469 11.5 20.046875 10.519531 19.136719 L 7.648438 21.242188 C 7.808594 21.554688 7.910156 21.90625 7.910156 22.285156 Z M 25.261719 23.828125 C 25.027344 23.695312 24.761719 23.621094 24.5 23.617188 C 24.496094 23.617188 24.488281 23.617188 24.484375 23.617188 C 23.929688 23.617188 23.40625 23.914062 23.121094 24.394531 C 23.019531 24.566406 22.953125 24.753906 22.929688 24.945312 C 22.839844 25.570312 23.144531 26.199219 23.6875 26.519531 C 24.050781 26.734375 24.472656 26.792969 24.875 26.683594 C 25.277344 26.578125 25.609375 26.324219 25.816406 25.964844 L 25.820312 25.960938 C 26.253906 25.222656 26.003906 24.265625 25.261719 23.828125 Z M 24.097656 12.707031 C 24.09375 12.707031 24.089844 12.707031 24.085938 12.707031 C 23.375 12.707031 22.75 12.378906 22.328125 11.875 L 19.535156 13.65625 C 19.664062 14.121094 19.738281 14.609375 19.738281 15.117188 C 19.738281 16.617188 19.132812 17.976562 18.152344 18.96875 L 23.386719 23.152344 C 23.617188 23.03125 23.867188 22.945312 24.128906 22.902344 Z M 24.085938 8.84375 C 23.226562 8.84375 22.527344 9.542969 22.527344 10.402344 C 22.527344 11.257812 23.226562 11.957031 24.085938 11.957031 C 24.941406 11.957031 25.640625 11.257812 25.640625 10.402344 C 25.640625 9.542969 24.941406 8.84375 24.085938 8.84375 Z M 25.613281 4.933594 C 25.613281 5.371094 25.96875 5.726562 26.40625 5.726562 C 26.847656 5.726562 27.203125 5.371094 27.203125 4.933594 C 27.203125 4.492188 26.847656 4.136719 26.40625 4.136719 C 25.96875 4.136719 25.613281 4.492188 25.613281 4.933594 Z M 18.101562 15.285156 C 18.359375 15.808594 18.300781 16.496094 18.050781 16.957031 C 17.734375 17.519531 17.121094 17.882812 16.476562 17.882812 C 16.421875 17.882812 16.371094 17.867188 16.316406 17.863281 L 16.339844 18.167969 C 16.355469 18.371094 16.285156 18.578125 16.148438 18.734375 C 16.011719 18.886719 15.816406 18.976562 15.613281 18.980469 C 15.601562 18.984375 15.59375 18.984375 15.582031 18.984375 C 15.292969 18.984375 15.039062 18.832031 14.90625 18.578125 L 14.351562 17.535156 C 14.136719 17.574219 13.921875 17.59375 13.699219 17.574219 C 13.109375 17.53125 12.582031 17.273438 12.171875 16.828125 C 11.652344 16.964844 11.074219 16.859375 10.648438 16.546875 C 10.128906 16.160156 9.851562 15.503906 9.941406 14.875 C 10.007812 14.355469 10.335938 13.84375 10.816406 13.503906 C 10.945312 12.972656 11.433594 12.519531 11.980469 12.40625 C 12.089844 12.179688 12.253906 11.980469 12.460938 11.832031 C 12.859375 11.546875 13.5 11.445312 14.003906 11.699219 C 14.355469 11.503906 14.757812 11.4375 15.125 11.523438 C 15.402344 11.585938 15.660156 11.746094 15.859375 11.96875 C 16.117188 11.933594 16.394531 11.980469 16.660156 12.109375 C 17.066406 12.3125 17.363281 12.65625 17.449219 13.039062 C 17.472656 13.152344 17.480469 13.265625 17.472656 13.382812 C 17.671875 13.472656 17.855469 13.617188 18 13.8125 C 18.261719 14.164062 18.363281 14.582031 18.269531 14.941406 C 18.234375 15.066406 18.175781 15.179688 18.101562 15.285156 Z M 15.570312 18.230469 L 15.539062 17.589844 C 15.394531 17.5 15.257812 17.394531 15.136719 17.257812 C 15.113281 17.269531 15.089844 17.277344 15.070312 17.289062 Z M 17.355469 15.496094 C 17.355469 15.492188 17.355469 15.492188 17.351562 15.488281 C 17.351562 15.488281 17.347656 15.488281 17.347656 15.484375 C 17.332031 15.46875 17.328125 15.445312 17.316406 15.425781 C 17.304688 15.40625 17.289062 15.382812 17.28125 15.359375 C 17.273438 15.335938 17.273438 15.3125 17.269531 15.289062 C 17.269531 15.265625 17.261719 15.242188 17.265625 15.21875 C 17.265625 15.195312 17.277344 15.171875 17.28125 15.148438 C 17.289062 15.125 17.292969 15.101562 17.300781 15.082031 C 17.3125 15.058594 17.332031 15.042969 17.347656 15.023438 C 17.359375 15.003906 17.371094 14.984375 17.386719 14.96875 C 17.390625 14.964844 17.394531 14.964844 17.394531 14.964844 C 17.394531 14.960938 17.398438 14.960938 17.398438 14.957031 C 17.449219 14.917969 17.515625 14.84375 17.546875 14.742188 C 17.578125 14.621094 17.519531 14.417969 17.402344 14.261719 C 17.292969 14.113281 17.152344 14.023438 17.023438 14.019531 C 17.011719 14.019531 17 14.011719 16.988281 14.011719 C 16.960938 14.007812 16.933594 14.007812 16.902344 13.996094 C 16.898438 13.996094 16.898438 13.992188 16.894531 13.988281 C 16.867188 13.980469 16.847656 13.960938 16.824219 13.945312 C 16.808594 13.933594 16.789062 13.921875 16.773438 13.910156 C 16.753906 13.890625 16.742188 13.871094 16.730469 13.847656 C 16.71875 13.828125 16.703125 13.8125 16.691406 13.789062 C 16.683594 13.769531 16.683594 13.746094 16.679688 13.726562 C 16.671875 13.699219 16.664062 13.675781 16.664062 13.648438 C 16.664062 13.644531 16.664062 13.640625 16.664062 13.632812 C 16.664062 13.613281 16.671875 13.59375 16.675781 13.574219 C 16.679688 13.554688 16.679688 13.53125 16.6875 13.511719 C 16.730469 13.402344 16.738281 13.296875 16.71875 13.203125 C 16.683594 13.050781 16.527344 12.878906 16.328125 12.78125 C 16.15625 12.699219 15.980469 12.679688 15.863281 12.734375 C 15.8125 12.757812 15.761719 12.769531 15.710938 12.769531 C 15.707031 12.769531 15.707031 12.769531 15.707031 12.769531 C 15.699219 12.769531 15.695312 12.765625 15.6875 12.765625 C 15.636719 12.761719 15.589844 12.75 15.542969 12.726562 C 15.527344 12.71875 15.515625 12.710938 15.5 12.703125 C 15.464844 12.675781 15.433594 12.644531 15.40625 12.605469 C 15.398438 12.597656 15.386719 12.59375 15.382812 12.582031 C 15.285156 12.414062 15.125 12.292969 14.957031 12.253906 C 14.71875 12.195312 14.449219 12.265625 14.226562 12.433594 C 14.21875 12.441406 14.207031 12.441406 14.199219 12.449219 C 14.175781 12.460938 14.15625 12.472656 14.132812 12.480469 C 14.109375 12.488281 14.085938 12.496094 14.0625 12.5 C 14.039062 12.503906 14.019531 12.503906 13.996094 12.503906 C 13.96875 12.503906 13.945312 12.503906 13.921875 12.5 C 13.898438 12.492188 13.878906 12.484375 13.855469 12.476562 C 13.832031 12.464844 13.8125 12.457031 13.789062 12.441406 C 13.78125 12.433594 13.769531 12.433594 13.761719 12.425781 C 13.558594 12.257812 13.144531 12.265625 12.898438 12.441406 C 12.757812 12.542969 12.65625 12.6875 12.609375 12.851562 C 12.605469 12.867188 12.597656 12.875 12.59375 12.886719 C 12.589844 12.898438 12.585938 12.90625 12.578125 12.917969 C 12.5625 12.953125 12.539062 12.984375 12.511719 13.015625 C 12.503906 13.019531 12.503906 13.023438 12.5 13.027344 C 12.46875 13.054688 12.4375 13.074219 12.398438 13.089844 C 12.390625 13.09375 12.386719 13.101562 12.378906 13.101562 C 12.335938 13.117188 12.292969 13.128906 12.25 13.128906 C 12.246094 13.128906 12.246094 13.128906 12.246094 13.128906 C 12.242188 13.128906 12.242188 13.128906 12.238281 13.128906 C 11.914062 13.128906 11.554688 13.445312 11.53125 13.753906 L 11.519531 13.949219 L 11.351562 14.046875 C 10.988281 14.261719 10.726562 14.625 10.683594 14.972656 C 10.632812 15.335938 10.796875 15.722656 11.09375 15.945312 C 11.34375 16.128906 11.691406 16.1875 12 16.097656 C 12.25 16.023438 12.53125 16.101562 12.707031 16.304688 C 12.988281 16.617188 13.347656 16.796875 13.757812 16.828125 C 14.128906 16.855469 14.496094 16.769531 14.824219 16.574219 C 15.097656 16.40625 15.464844 16.472656 15.671875 16.734375 C 15.777344 16.863281 15.910156 16.964844 16.050781 17.023438 C 16.203125 17.097656 16.34375 17.132812 16.476562 17.132812 C 16.847656 17.132812 17.214844 16.914062 17.394531 16.59375 C 17.5625 16.285156 17.589844 15.757812 17.355469 15.496094 Z M 17.355469 15.496094 " fill-opacity="1" fill-rule="nonzero"/></g></svg>