<svg xmlns="http://www.w3.org/2000/svg" xmlns:xlink="http://www.w3.org/1999/xlink" width="40" zoomAndPan="magnify" viewBox="0 0 30 30.000001" height="40" preserveAspectRatio="xMidYMid meet" version="1.0"><defs><clipPath id="02ca9d2d19"><path d="M 1.933594 7.125 L 28.066406 7.125 L 28.066406 23.816406 L 1.933594 23.816406 Z M 1.933594 7.125 " clip-rule="nonzero"/></clipPath></defs><g clip-path="url(#02ca9d2d19)"><path fill="#5e17eb" d="M 19.261719 15.097656 C 19.085938 15.097656 18.941406 14.957031 18.941406 14.78125 C 18.941406 14.605469 19.085938 14.460938 19.261719 14.460938 L 24.3125 14.460938 C 24.488281 14.460938 24.628906 14.605469 24.628906 14.78125 C 24.628906 14.957031 24.488281 15.097656 24.3125 15.097656 Z M 26.300781 20.566406 L 26.300781 8.546875 C 26.300781 8.328125 26.21875 8.125 26.085938 7.980469 C 25.964844 7.847656 25.792969 7.761719 25.609375 7.761719 L 4.390625 7.761719 C 4.207031 7.761719 4.035156 7.847656 3.914062 7.980469 C 3.78125 8.125 3.699219 8.328125 3.699219 8.546875 L 3.699219 20.566406 L 12.824219 20.566406 C 12.828125 20.566406 12.832031 20.566406 12.832031 20.566406 C 12.835938 20.566406 12.839844 20.566406 12.839844 20.566406 L 12.855469 20.566406 C 12.859375 20.566406 12.863281 20.566406 12.863281 20.566406 L 12.875 20.570312 L 12.890625 20.570312 L 12.894531 20.574219 L 12.902344 20.574219 L 12.910156 20.578125 L 12.917969 20.578125 L 12.925781 20.582031 L 12.933594 20.582031 L 12.957031 20.59375 L 12.960938 20.597656 L 12.96875 20.597656 L 12.976562 20.601562 C 12.980469 20.605469 12.980469 20.605469 12.984375 20.605469 L 12.988281 20.609375 L 13.003906 20.617188 L 13.007812 20.625 L 13.015625 20.628906 L 13.019531 20.632812 L 13.027344 20.636719 L 13.042969 20.652344 L 13.050781 20.65625 C 13.050781 20.660156 13.054688 20.660156 13.054688 20.664062 L 13.070312 20.679688 L 13.074219 20.6875 L 13.089844 20.703125 L 13.097656 20.71875 L 13.101562 20.722656 L 13.113281 20.746094 L 13.113281 20.75 L 13.125 20.773438 L 13.125 20.78125 L 13.128906 20.789062 L 13.128906 20.796875 L 13.132812 20.804688 L 13.136719 20.808594 L 13.136719 20.824219 L 13.140625 20.832031 L 13.140625 20.867188 L 13.144531 20.875 L 13.144531 21.796875 L 16.855469 21.796875 L 16.855469 20.875 C 16.855469 20.871094 16.855469 20.867188 16.859375 20.867188 L 16.859375 20.832031 L 16.863281 20.824219 L 16.863281 20.808594 L 16.867188 20.804688 L 16.871094 20.796875 L 16.871094 20.789062 L 16.875 20.78125 L 16.875 20.773438 L 16.886719 20.75 L 16.886719 20.746094 L 16.898438 20.722656 L 16.902344 20.71875 L 16.910156 20.703125 L 16.925781 20.6875 L 16.929688 20.679688 L 16.945312 20.664062 L 16.949219 20.65625 L 16.957031 20.652344 L 16.972656 20.636719 L 16.980469 20.632812 L 16.984375 20.628906 L 16.992188 20.625 L 16.996094 20.617188 L 17.011719 20.609375 L 17.015625 20.605469 L 17.03125 20.597656 L 17.039062 20.597656 L 17.042969 20.59375 L 17.066406 20.582031 L 17.074219 20.582031 C 17.074219 20.582031 17.078125 20.578125 17.082031 20.578125 L 17.089844 20.578125 L 17.09375 20.574219 L 17.101562 20.574219 L 17.109375 20.570312 L 17.125 20.570312 L 17.132812 20.566406 L 17.152344 20.566406 C 17.152344 20.566406 17.15625 20.566406 17.160156 20.566406 Z M 26.9375 8.546875 C 26.9375 8.164062 26.792969 7.8125 26.558594 7.554688 C 26.316406 7.289062 25.980469 7.125 25.609375 7.125 L 4.390625 7.125 C 4.019531 7.125 3.683594 7.289062 3.441406 7.554688 C 3.207031 7.8125 3.0625 8.164062 3.0625 8.546875 L 3.0625 20.566406 L 2.265625 20.566406 C 2.089844 20.566406 1.949219 20.707031 1.949219 20.882812 L 1.949219 21.996094 C 1.949219 22.546875 2.144531 23.050781 2.460938 23.417969 C 2.789062 23.796875 3.246094 24.03125 3.75 24.03125 L 26.25 24.03125 C 26.753906 24.03125 27.207031 23.796875 27.539062 23.417969 C 27.855469 23.050781 28.050781 22.546875 28.050781 21.996094 L 28.050781 20.882812 C 28.050781 20.707031 27.910156 20.566406 27.734375 20.566406 L 26.9375 20.566406 Z M 26.621094 21.203125 L 27.414062 21.203125 L 27.414062 21.996094 C 27.414062 22.390625 27.277344 22.746094 27.058594 23.003906 C 26.847656 23.246094 26.558594 23.394531 26.25 23.394531 L 3.75 23.394531 C 3.441406 23.394531 3.152344 23.246094 2.941406 23.003906 C 2.722656 22.746094 2.585938 22.390625 2.585938 21.996094 L 2.585938 21.203125 L 12.507812 21.203125 L 12.507812 22.15625 L 12.511719 22.164062 L 12.511719 22.179688 L 12.515625 22.1875 L 12.515625 22.195312 L 12.519531 22.203125 L 12.519531 22.210938 L 12.527344 22.226562 L 12.527344 22.234375 L 12.53125 22.242188 L 12.535156 22.246094 L 12.542969 22.261719 L 12.542969 22.269531 L 12.546875 22.277344 L 12.550781 22.28125 L 12.554688 22.289062 L 12.566406 22.300781 L 12.570312 22.308594 L 12.574219 22.3125 L 12.578125 22.320312 L 12.59375 22.335938 C 12.597656 22.339844 12.597656 22.339844 12.597656 22.34375 L 12.605469 22.347656 L 12.621094 22.363281 L 12.628906 22.367188 L 12.632812 22.371094 L 12.648438 22.378906 L 12.652344 22.386719 L 12.667969 22.394531 C 12.667969 22.394531 12.671875 22.394531 12.671875 22.398438 L 12.679688 22.398438 L 12.695312 22.40625 L 12.699219 22.410156 L 12.707031 22.414062 L 12.714844 22.414062 L 12.730469 22.421875 L 12.738281 22.421875 L 12.746094 22.425781 L 12.753906 22.425781 L 12.761719 22.429688 L 12.777344 22.429688 L 12.785156 22.433594 C 12.785156 22.433594 12.789062 22.433594 12.792969 22.433594 L 12.808594 22.433594 C 12.8125 22.433594 12.8125 22.433594 12.816406 22.433594 C 12.820312 22.433594 12.820312 22.433594 12.824219 22.433594 L 17.191406 22.433594 C 17.195312 22.433594 17.195312 22.433594 17.199219 22.433594 L 17.214844 22.433594 L 17.222656 22.429688 L 17.238281 22.429688 L 17.246094 22.425781 L 17.253906 22.425781 L 17.261719 22.421875 L 17.269531 22.421875 C 17.273438 22.417969 17.273438 22.417969 17.277344 22.417969 L 17.285156 22.414062 L 17.292969 22.414062 L 17.300781 22.410156 L 17.304688 22.40625 L 17.320312 22.398438 L 17.328125 22.398438 L 17.332031 22.394531 L 17.347656 22.386719 L 17.351562 22.378906 L 17.367188 22.371094 L 17.371094 22.367188 L 17.378906 22.363281 L 17.410156 22.332031 L 17.414062 22.324219 L 17.421875 22.320312 L 17.425781 22.3125 L 17.429688 22.308594 L 17.433594 22.300781 L 17.445312 22.289062 L 17.449219 22.28125 L 17.453125 22.277344 L 17.457031 22.269531 L 17.457031 22.261719 L 17.464844 22.246094 L 17.46875 22.242188 L 17.472656 22.234375 L 17.472656 22.226562 L 17.480469 22.210938 L 17.480469 22.203125 L 17.484375 22.195312 L 17.484375 22.1875 L 17.488281 22.179688 L 17.488281 22.164062 L 17.492188 22.15625 L 17.492188 22.132812 C 17.492188 22.128906 17.492188 22.128906 17.492188 22.125 L 17.492188 21.203125 Z M 16.265625 17.820312 L 16.265625 18.953125 C 16.265625 19.128906 16.125 19.269531 15.949219 19.269531 L 9.75 19.269531 C 9.574219 19.269531 9.429688 19.128906 9.429688 18.953125 L 9.429688 17.820312 C 9.429688 16.261719 10.324219 15.261719 11.46875 14.824219 C 11.902344 14.660156 12.375 14.578125 12.847656 14.578125 L 12.847656 14.574219 C 13.320312 14.574219 13.792969 14.660156 14.230469 14.828125 C 15.375 15.261719 16.265625 16.261719 16.265625 17.820312 Z M 15.628906 18.632812 L 10.066406 18.632812 L 10.066406 17.820312 C 10.066406 16.570312 10.78125 15.769531 11.695312 15.421875 C 12.058594 15.28125 12.453125 15.210938 12.847656 15.210938 C 13.246094 15.210938 13.640625 15.28125 14.003906 15.421875 C 14.917969 15.769531 15.628906 16.570312 15.628906 17.820312 Z M 12.847656 13.667969 C 12.46875 13.667969 12.128906 13.515625 11.878906 13.269531 C 11.632812 13.019531 11.476562 12.675781 11.476562 12.296875 C 11.476562 11.921875 11.632812 11.578125 11.878906 11.328125 C 12.128906 11.082031 12.46875 10.929688 12.847656 10.929688 C 13.226562 10.929688 13.570312 11.082031 13.820312 11.328125 C 14.066406 11.578125 14.21875 11.921875 14.21875 12.296875 C 14.21875 12.675781 14.066406 13.019531 13.820312 13.269531 C 13.570312 13.515625 13.226562 13.667969 12.847656 13.667969 Z M 14.269531 13.71875 C 13.90625 14.082031 13.402344 14.304688 12.847656 14.304688 C 12.292969 14.304688 11.792969 14.082031 11.429688 13.71875 C 11.066406 13.355469 10.839844 12.851562 10.839844 12.300781 C 10.839844 11.746094 11.066406 11.242188 11.429688 10.878906 C 11.792969 10.515625 12.292969 10.292969 12.847656 10.292969 C 13.402344 10.292969 13.90625 10.515625 14.269531 10.878906 C 14.632812 11.242188 14.855469 11.746094 14.855469 12.300781 C 14.855469 12.851562 14.632812 13.355469 14.269531 13.71875 Z M 8.136719 9.027344 L 8.800781 8.628906 C 8.863281 8.59375 8.929688 8.574219 8.996094 8.574219 C 9.066406 8.574219 9.132812 8.589844 9.195312 8.625 C 9.207031 8.632812 9.21875 8.640625 9.230469 8.648438 C 9.277344 8.679688 9.3125 8.722656 9.339844 8.769531 L 9.339844 8.765625 C 9.375 8.828125 9.394531 8.894531 9.394531 8.964844 L 9.394531 10.730469 C 9.394531 10.800781 9.375 10.867188 9.339844 10.929688 C 9.332031 10.941406 9.324219 10.957031 9.3125 10.96875 C 9.28125 11.011719 9.242188 11.042969 9.195312 11.070312 C 9.183594 11.078125 9.171875 11.082031 9.15625 11.089844 C 9.105469 11.113281 9.050781 11.121094 8.996094 11.121094 C 8.929688 11.121094 8.863281 11.101562 8.800781 11.066406 L 8.136719 10.667969 L 8.136719 10.679688 C 8.136719 10.816406 8.082031 10.941406 7.992188 11.03125 L 7.988281 11.03125 L 7.992188 11.03125 C 7.898438 11.121094 7.773438 11.179688 7.636719 11.179688 L 5.121094 11.179688 C 4.984375 11.179688 4.859375 11.121094 4.769531 11.03125 C 4.675781 10.941406 4.621094 10.816406 4.621094 10.679688 L 4.621094 9.015625 C 4.621094 8.878906 4.675781 8.753906 4.769531 8.664062 C 4.859375 8.574219 4.984375 8.515625 5.121094 8.515625 L 7.636719 8.515625 C 7.773438 8.515625 7.898438 8.574219 7.992188 8.664062 C 8 8.671875 8.007812 8.679688 8.015625 8.691406 C 8.089844 8.777344 8.136719 8.890625 8.136719 9.015625 Z M 8.757812 9.394531 L 8.757812 10.300781 L 8.136719 9.925781 L 8.136719 9.769531 Z M 7.5 9.152344 L 7.5 10.542969 L 5.257812 10.542969 L 5.257812 9.152344 Z M 17.835938 13.472656 C 17.660156 13.472656 17.519531 13.328125 17.519531 13.152344 C 17.519531 12.976562 17.660156 12.835938 17.835938 12.835938 L 18.171875 12.835938 C 18.347656 12.835938 18.488281 12.976562 18.488281 13.152344 C 18.488281 13.328125 18.347656 13.472656 18.171875 13.472656 Z M 19.261719 13.445312 C 19.085938 13.445312 18.941406 13.300781 18.941406 13.125 C 18.941406 12.949219 19.085938 12.808594 19.261719 12.808594 L 24.3125 12.808594 C 24.488281 12.808594 24.628906 12.949219 24.628906 13.125 C 24.628906 13.300781 24.488281 13.445312 24.3125 13.445312 Z M 17.835938 11.824219 C 17.660156 11.824219 17.519531 11.683594 17.519531 11.507812 C 17.519531 11.332031 17.660156 11.1875 17.835938 11.1875 L 18.171875 11.1875 C 18.347656 11.1875 18.488281 11.332031 18.488281 11.507812 C 18.488281 11.683594 18.347656 11.824219 18.171875 11.824219 Z M 19.261719 11.789062 C 19.085938 11.789062 18.941406 11.648438 18.941406 11.472656 C 18.941406 11.296875 19.085938 11.152344 19.261719 11.152344 L 24.3125 11.152344 C 24.488281 11.152344 24.628906 11.296875 24.628906 11.472656 C 24.628906 11.648438 24.488281 11.789062 24.3125 11.789062 Z M 17.835938 18.410156 C 17.660156 18.410156 17.519531 18.265625 17.519531 18.089844 C 17.519531 17.914062 17.660156 17.773438 17.835938 17.773438 L 18.171875 17.773438 C 18.347656 17.773438 18.488281 17.914062 18.488281 18.089844 C 18.488281 18.265625 18.347656 18.410156 18.171875 18.410156 Z M 19.261719 18.410156 C 19.085938 18.410156 18.941406 18.265625 18.941406 18.089844 C 18.941406 17.914062 19.085938 17.773438 19.261719 17.773438 L 24.3125 17.773438 C 24.488281 17.773438 24.628906 17.914062 24.628906 18.089844 C 24.628906 18.265625 24.488281 18.410156 24.3125 18.410156 Z M 17.835938 16.761719 C 17.660156 16.761719 17.519531 16.621094 17.519531 16.445312 C 17.519531 16.269531 17.660156 16.125 17.835938 16.125 L 18.171875 16.125 C 18.347656 16.125 18.488281 16.269531 18.488281 16.445312 C 18.488281 16.621094 18.347656 16.761719 18.171875 16.761719 Z M 19.261719 16.753906 C 19.085938 16.753906 18.941406 16.609375 18.941406 16.433594 C 18.941406 16.257812 19.085938 16.117188 19.261719 16.117188 L 24.3125 16.117188 C 24.488281 16.117188 24.628906 16.257812 24.628906 16.433594 C 24.628906 16.609375 24.488281 16.753906 24.3125 16.753906 Z M 17.835938 15.117188 C 17.660156 15.117188 17.519531 14.972656 17.519531 14.796875 C 17.519531 14.621094 17.660156 14.480469 17.835938 14.480469 L 18.171875 14.480469 C 18.347656 14.480469 18.488281 14.621094 18.488281 14.796875 C 18.488281 14.972656 18.347656 15.117188 18.171875 15.117188 Z M 17.835938 15.117188 " fill-opacity="1" fill-rule="evenodd"/></g></svg>