<svg xmlns="http://www.w3.org/2000/svg" xmlns:xlink="http://www.w3.org/1999/xlink" width="40" zoomAndPan="magnify" viewBox="0 0 30 30.000001" height="40" preserveAspectRatio="xMidYMid meet" version="1.0"><defs><clipPath id="2c6e3f9a77"><path d="M 1.441406 0.734375 L 28.296875 0.734375 L 28.296875 28.316406 L 1.441406 28.316406 Z M 1.441406 0.734375 " clip-rule="nonzero"/></clipPath></defs><g clip-path="url(#2c6e3f9a77)"><path fill="#5e17eb" d="M 25 1.625 C 23.539062 1.625 16.410156 1.625 16.410156 1.625 L 16.410156 4.457031 C 16.410156 4.703125 16.210938 4.902344 15.964844 4.902344 C 15.722656 4.902344 15.523438 4.703125 15.523438 4.457031 L 15.523438 1.179688 C 15.523438 0.933594 15.722656 0.734375 15.964844 0.734375 L 25.445312 0.734375 C 25.5625 0.734375 25.675781 0.78125 25.761719 0.867188 L 28.410156 3.515625 C 28.496094 3.601562 28.542969 3.714844 28.542969 3.832031 L 28.542969 16.902344 C 28.542969 17.148438 28.34375 17.347656 28.097656 17.347656 L 15.964844 17.347656 C 15.722656 17.347656 15.523438 17.148438 15.523438 16.902344 L 15.523438 13.660156 C 15.523438 13.417969 15.722656 13.21875 15.964844 13.21875 C 16.210938 13.21875 16.410156 13.417969 16.410156 13.660156 C 16.410156 13.660156 16.410156 16.457031 16.410156 16.457031 L 27.652344 16.457031 L 27.652344 4.277344 L 25.445312 4.277344 C 25.199219 4.277344 25 4.078125 25 3.832031 Z M 27.023438 3.386719 L 25.890625 2.253906 L 25.890625 3.386719 Z M 9.078125 23.246094 L 3.605469 23.246094 C 2.417969 23.246094 1.449219 22.273438 1.449219 21.089844 L 1.449219 9.320312 C 1.449219 8.132812 2.417969 7.164062 3.605469 7.164062 L 9.007812 7.164062 C 9.253906 7.164062 9.453125 7.363281 9.453125 7.609375 C 9.453125 7.855469 9.253906 8.054688 9.007812 8.054688 L 3.605469 8.054688 C 2.910156 8.054688 2.339844 8.625 2.339844 9.320312 L 2.339844 21.089844 C 2.339844 21.785156 2.910156 22.355469 3.605469 22.355469 L 22.4375 22.355469 C 23.132812 22.355469 23.703125 21.785156 23.703125 21.089844 L 23.703125 18.566406 C 23.703125 18.324219 23.902344 18.125 24.148438 18.125 C 24.390625 18.125 24.589844 18.324219 24.589844 18.566406 L 24.589844 21.089844 C 24.589844 22.273438 23.621094 23.246094 22.4375 23.246094 L 16.960938 23.246094 L 16.960938 25.074219 L 19.121094 25.074219 C 20.191406 25.074219 21.027344 25.828125 21.027344 26.683594 L 21.027344 27.847656 C 21.027344 28.09375 20.828125 28.292969 20.582031 28.292969 L 5.460938 28.292969 C 5.214844 28.292969 5.015625 28.09375 5.015625 27.847656 L 5.015625 26.683594 C 5.015625 25.828125 5.847656 25.074219 6.921875 25.074219 L 9.078125 25.074219 Z M 16.074219 23.246094 L 9.96875 23.246094 L 9.96875 25.074219 L 16.074219 25.074219 Z M 5.90625 27.40625 L 20.136719 27.40625 L 20.136719 26.683594 C 20.136719 26.257812 19.65625 25.960938 19.121094 25.960938 L 6.921875 25.960938 C 6.386719 25.960938 5.90625 26.257812 5.90625 26.683594 Z M 3.769531 9.484375 C 3.769531 10.933594 3.769531 19.472656 3.769531 19.472656 L 22.273438 19.472656 L 22.273438 18.566406 C 22.273438 18.324219 22.472656 18.125 22.714844 18.125 C 22.960938 18.125 23.160156 18.324219 23.160156 18.566406 L 23.160156 19.917969 C 23.160156 20.164062 22.960938 20.363281 22.714844 20.363281 L 3.324219 20.363281 C 3.078125 20.363281 2.878906 20.164062 2.878906 19.917969 L 2.878906 9.277344 C 2.878906 8.902344 3.1875 8.597656 3.5625 8.597656 L 7.734375 8.597656 C 7.976562 8.597656 8.175781 8.796875 8.175781 9.039062 C 8.175781 9.285156 7.976562 9.484375 7.734375 9.484375 Z M 18.441406 6.488281 C 18.195312 6.488281 17.996094 6.289062 17.996094 6.046875 C 17.996094 5.800781 18.195312 5.601562 18.441406 5.601562 L 25.621094 5.601562 C 25.867188 5.601562 26.066406 5.800781 26.066406 6.046875 C 26.066406 6.289062 25.867188 6.488281 25.621094 6.488281 Z M 20.664062 8.605469 C 20.417969 8.605469 20.21875 8.40625 20.21875 8.160156 C 20.21875 7.914062 20.417969 7.714844 20.664062 7.714844 L 25.621094 7.714844 C 25.867188 7.714844 26.066406 7.914062 26.066406 8.160156 C 26.066406 8.40625 25.867188 8.605469 25.621094 8.605469 Z M 20.664062 10.71875 C 20.417969 10.71875 20.21875 10.519531 20.21875 10.277344 C 20.21875 10.03125 20.417969 9.832031 20.664062 9.832031 L 25.621094 9.832031 C 25.867188 9.832031 26.066406 10.03125 26.066406 10.277344 C 26.066406 10.519531 25.867188 10.71875 25.621094 10.71875 Z M 18.441406 12.835938 C 18.195312 12.835938 17.996094 12.636719 17.996094 12.390625 C 17.996094 12.148438 18.195312 11.949219 18.441406 11.949219 L 25.621094 11.949219 C 25.867188 11.949219 26.066406 12.148438 26.066406 12.390625 C 26.066406 12.636719 25.867188 12.835938 25.621094 12.835938 Z M 18.441406 14.953125 C 18.195312 14.953125 17.996094 14.753906 17.996094 14.507812 C 17.996094 14.261719 18.195312 14.0625 18.441406 14.0625 L 25.621094 14.0625 C 25.867188 14.0625 26.066406 14.261719 26.066406 14.507812 C 26.066406 14.753906 25.867188 14.953125 25.621094 14.953125 Z M 18.441406 4.375 C 18.195312 4.375 17.996094 4.175781 17.996094 3.929688 C 17.996094 3.683594 18.195312 3.484375 18.441406 3.484375 L 23.59375 3.484375 C 23.839844 3.484375 24.039062 3.683594 24.039062 3.929688 C 24.039062 4.175781 23.839844 4.375 23.59375 4.375 Z M 14.675781 11.324219 C 12.601562 11.363281 9.804688 11.777344 8.914062 15.246094 C 8.871094 15.425781 8.722656 15.554688 8.539062 15.578125 C 8.359375 15.601562 8.183594 15.511719 8.09375 15.351562 C 6.882812 13.171875 7.21875 10.457031 9.183594 8.632812 C 10.382812 7.519531 12.203125 6.738281 14.675781 6.652344 L 14.675781 5.417969 C 14.675781 5.246094 14.777344 5.085938 14.933594 5.015625 C 15.089844 4.941406 15.273438 4.964844 15.40625 5.078125 L 19.988281 8.914062 C 20.09375 9 20.152344 9.132812 20.148438 9.269531 C 20.144531 9.402344 20.078125 9.53125 19.964844 9.613281 L 15.382812 12.972656 C 15.25 13.074219 15.070312 13.089844 14.917969 13.011719 C 14.769531 12.9375 14.675781 12.785156 14.675781 12.617188 Z M 15.566406 10.875 L 15.566406 11.738281 L 18.984375 9.230469 C 18.984375 9.230469 15.566406 6.371094 15.566406 6.371094 L 15.566406 7.089844 C 15.566406 7.335938 15.367188 7.535156 15.121094 7.535156 C 12.703125 7.535156 10.925781 8.230469 9.789062 9.285156 C 8.441406 10.535156 8.003906 12.28125 8.445312 13.878906 C 9.839844 10.6875 12.949219 10.433594 15.121094 10.433594 C 15.367188 10.433594 15.566406 10.628906 15.566406 10.875 Z M 15.566406 10.875 " fill-opacity="1" fill-rule="evenodd"/></g></svg>